<svg width="51" height="52" viewBox="0 0 51 52" fill="none" xmlns="http://www.w3.org/2000/svg">
<path d="M43.8215 44.8226C53.3909 35.2519 53.391 19.7347 43.8216 10.1639C34.2522 0.59318 18.7371 0.593184 9.16769 10.1639C-0.40171 19.7347 -0.401709 35.2519 9.16769 44.8226C18.7371 54.3934 34.2521 54.3934 43.8215 44.8226Z" fill="#34292A"/>
<path d="M42.5811 42.5874C52.3221 32.845 52.3221 17.0495 42.5811 7.30709C32.84 -2.43531 17.0467 -2.43531 7.30567 7.30709C-2.43536 17.0495 -2.43536 32.845 7.30567 42.5874C17.0467 52.3298 32.84 52.3298 42.5811 42.5874Z" fill="white"/>
<path d="M42.2709 42.2395C51.8403 32.6688 51.8403 17.1515 42.2709 7.58079C32.7015 -1.98995 17.1864 -1.98995 7.617 7.58079C-1.9524 17.1515 -1.9524 32.6688 7.617 42.2395C17.1864 51.8103 32.7015 51.8103 42.2709 42.2395Z" fill="#F7F1ED"/>
<path d="M6.75226 41.3276C6.75534 40.8665 6.7707 40.4146 6.79836 39.972C8.69158 22.3836 26.0071 11.2901 42.5113 9.66712C43.0215 9.62101 43.5347 9.58412 44.0449 9.55646C39.5516 3.97438 32.6672 0.402588 24.9437 0.402588C11.4115 0.402588 0.439499 11.3731 0.439499 24.9102C0.439499 31.227 2.8306 36.9843 6.75226 41.3276Z" fill="#DCD8D5"/>
<path d="M38.7377 38.6313C46.3555 31.0124 46.3555 18.6597 38.7377 11.0408C31.1199 3.42192 18.7689 3.42192 11.1511 11.0408C3.53326 18.6597 3.53326 31.0124 11.1511 38.6313C18.7689 46.2502 31.1199 46.2502 38.7377 38.6313Z" fill="white"/>
<path d="M45.2343 23.2473C44.7979 22.565 43.5532 22.0701 42.8063 22.1684L41.8136 22.6695C41.7276 22.6879 41.6415 22.7094 41.5462 22.7248C40.4521 22.9246 39.4379 23.2535 38.4851 23.6808C38.5988 22.5588 38.5927 21.4123 38.4728 20.2719C38.5865 20.3426 38.7033 20.4071 38.8324 20.4563C39.0045 20.5209 39.1951 20.5608 39.4102 20.5731C39.484 20.5762 39.5577 20.5762 39.6346 20.5731C39.6745 20.57 39.7145 20.567 39.7544 20.5608C39.7852 20.5577 39.8159 20.5547 39.8436 20.5516C39.8958 20.5454 39.9511 20.5332 40.0034 20.5209C40.0157 20.5178 40.028 20.5147 40.0403 20.5116C40.4705 20.4102 40.8701 20.192 41.1682 19.8754C41.9734 19.0239 42.0687 17.6806 42.2961 16.571C42.6035 15.0556 42.8862 13.5371 43.295 12.0494C43.3749 11.7574 43.4548 11.45 43.3749 11.1487C43.295 10.8475 42.3945 10.328 42.0964 10.3926C41.0237 11.7358 40.071 12.993 39.4348 14.6037C37.0375 12.7195 35.4547 10.6047 33.1466 9.02165C32.3475 8.16098 31.4901 7.36486 30.5926 6.64866C29.8396 6.04618 28.85 5.47445 28.0786 5.94475L26.8431 5.71729H22.1992L20.9882 5.94475C20.1677 5.47445 19.2395 6.04618 18.551 6.64866C18.0747 7.06362 17.6167 7.50625 17.1711 7.97348C13.9256 9.56265 12.4995 12.2615 9.77341 14.6007C8.96511 12.9869 7.87712 11.7328 6.65698 10.3895C6.35272 10.325 5.50753 10.8444 5.46143 11.1457C5.41533 11.4469 5.52905 11.7543 5.63969 12.0463C6.20827 13.534 6.65391 15.0525 7.12721 16.5679C7.47451 17.6806 7.71423 19.0208 8.61167 19.8723C8.94359 20.1889 9.36465 20.4071 9.80722 20.5086C9.81951 20.5116 9.83181 20.5147 9.8441 20.5178C9.89942 20.5301 9.95167 20.5393 10.007 20.5485C10.0377 20.5516 10.0685 20.5547 10.0992 20.5577C10.1391 20.5608 10.1791 20.567 10.2191 20.57C10.2928 20.5731 10.3666 20.5762 10.4434 20.57C10.6555 20.5577 10.8399 20.5178 11.0089 20.4532C11.2579 20.3579 11.4638 20.2073 11.6543 20.026C11.8264 19.8631 11.9832 19.6786 12.1522 19.4819C12.0416 20.9912 12.1092 22.5158 12.4073 24.0004C11.2056 23.4195 9.92401 22.9676 8.54098 22.7217C8.4457 22.7033 8.35657 22.6848 8.26744 22.6664L7.22249 22.1654C6.46336 22.0701 5.27395 22.5619 4.91129 23.2443C4.54556 23.9267 4.41033 25.0025 4.45028 25.8017C4.57014 28.1255 6.39882 30.4616 7.68965 32.4104C8.98047 34.3592 10.6002 36.0406 12.2198 37.7005C12.6347 38.1247 13.231 38.5827 13.7074 38.2907C13.8303 38.2169 13.9194 38.1001 13.9747 37.9618C14.319 38.3491 14.654 38.7425 14.9736 39.1421C15.4254 39.7077 15.8587 40.2917 16.1231 40.9219C16.3874 41.5551 16.4703 42.2467 16.2214 42.8492C16.1323 43.0674 15.997 43.2734 15.9356 43.5008C15.8741 43.7283 15.8926 43.9926 16.08 44.1832C16.332 44.4445 16.8115 44.4783 17.1619 44.3553C17.5122 44.2324 17.7643 43.9865 18.0193 43.7559C18.2744 43.5254 18.5541 43.2979 18.926 43.218C19.2333 43.1535 19.5714 43.1965 19.888 43.1596C20.2045 43.1227 20.5365 42.9537 20.5365 42.6863C20.5365 42.468 20.3213 42.2836 20.1246 42.1237C18.0716 40.47 16.3812 38.5151 15.1611 36.3972C15.2256 36.1359 15.1949 35.8623 15.1058 35.5765C15.1949 35.8593 16.4273 36.3357 16.6978 36.471C17.2049 36.723 17.7182 36.9628 18.2498 37.1534C19.4485 37.5837 20.7147 37.8081 21.9687 37.8019C23.1273 37.7958 24.2368 39.2313 25.1496 39.9567C24.6855 39.4741 24.2215 38.9946 23.7574 38.512C24.1692 38.9147 24.5811 39.3173 24.9929 39.72C25.208 39.929 25.4508 40.1442 25.7059 40.2825C25.6905 40.3163 25.6752 40.3532 25.6629 40.387C25.8903 40.51 26.127 40.5715 26.3728 40.5008C26.883 40.6514 27.341 40.2272 27.7036 39.8337C28.3306 39.1483 28.9545 38.4659 29.5815 37.7804C29.7843 37.8019 29.9902 37.8112 30.1931 37.8081C31.3518 37.7989 32.4858 37.5284 33.5431 37.1134C34.0902 36.8982 34.6126 36.64 35.1228 36.3511C35.3687 36.2128 36.3337 35.8224 36.3829 35.5796C36.3245 35.8654 36.3245 36.139 36.4167 36.4003C35.424 38.5181 33.9457 40.4731 32.0709 42.1237C31.8896 42.2836 31.6929 42.468 31.7175 42.6863C31.7482 42.9537 32.0955 43.1227 32.4182 43.1596C32.7409 43.1965 33.0698 43.1535 33.3863 43.218C33.7674 43.2979 34.0717 43.5285 34.3514 43.7559C34.6311 43.9865 34.9108 44.2293 35.2734 44.3553C35.6361 44.4783 36.1125 44.4445 36.3368 44.1832C36.5028 43.9926 36.4936 43.7283 36.4075 43.5008C36.3214 43.2734 36.1647 43.0674 36.051 42.8492C35.7375 42.2436 35.7467 41.552 35.9403 40.9219C36.137 40.2887 36.5058 39.7046 36.8962 39.1421C37.1728 38.7425 37.4678 38.3491 37.769 37.9618C37.8397 38.097 37.9411 38.2138 38.0733 38.2907C38.5835 38.5796 39.1305 38.1247 39.4993 37.7005C40.9377 36.0406 42.376 34.3592 43.4579 32.4104C44.5397 30.4616 46.1133 28.1255 45.9842 25.8017C45.9289 25.0025 45.6738 23.9297 45.2343 23.2473Z" fill="#7F746E"/>
<path d="M37.0744 8.40998C38.0118 9.39975 39.4041 9.82394 40.4398 10.7092C42.1763 12.1939 42.6127 14.9234 41.5923 16.9675C40.572 19.0116 38.2761 20.2873 35.9926 20.2811C33.706 20.275 31.5024 19.0731 30.0794 17.2872C29.2557 16.2513 28.6226 14.988 27.4701 14.3394C26.5726 13.8353 25.4846 13.78 24.5688 13.3066C23.2841 12.6426 22.5157 11.1949 22.442 9.75017C22.3682 8.30547 22.9091 6.88228 23.7174 5.68349C23.7881 6.21526 24.4735 6.47346 24.9837 6.30133C25.4939 6.13227 25.8504 5.68349 26.1792 5.2593C26.505 4.83511 26.8615 4.38633 27.3686 4.20805C28.3368 3.86685 29.3264 4.64761 30.3468 4.76749C31.4347 4.89351 32.5289 4.25723 33.6015 4.48469C34.4774 4.6722 35.1351 5.4007 35.6146 6.15993C36.0879 6.91917 36.4567 7.75832 37.0744 8.40998Z" fill="#34292A"/>
<path d="M32.6364 4.94887C32.4459 4.90584 32.2431 4.92428 32.0648 5.00113C31.991 5.03187 31.9111 5.09027 31.9203 5.16712C31.9296 5.25318 32.031 5.29007 32.117 5.29622C32.3045 5.30851 32.4951 5.2624 32.6518 5.16097C32.6149 5.0165 32.7748 4.89662 32.6364 4.94887Z" fill="#7F746E"/>
<path d="M35.0859 6.59337C35.4978 7.14358 35.7375 7.79831 36.0448 8.41307C36.3522 9.02784 36.7548 9.63338 37.3603 9.95306C38.0026 10.2912 38.8017 10.2697 39.4102 10.6662C39.401 10.4449 39.1828 10.3004 38.9892 10.1928C38.104 9.68871 37.2465 9.08932 36.638 8.2686C36.1555 7.62003 35.8451 6.85772 35.3994 6.18455C34.9538 5.5083 34.3114 4.89354 33.5093 4.78288C33.3433 4.76136 33.1313 4.78903 33.0759 4.94579C33.0391 5.0503 33.0974 5.17018 33.1804 5.24088C33.2665 5.31158 33.3741 5.34846 33.4786 5.38842C34.1178 5.62818 34.6803 6.05237 35.0859 6.59337Z" fill="#7F746E"/>
<path d="M8.31474 22.5331C10.3474 21.6832 11.3064 19.3462 10.4566 17.3132C9.6068 15.2803 7.2701 14.3212 5.23742 15.1711C3.20473 16.021 2.2458 18.358 3.09558 20.391C3.94536 22.424 6.28206 23.383 8.31474 22.5331Z" fill="#87A820"/>
<path d="M9.39875 21.182C10.8293 19.5062 10.6307 16.9878 8.95514 15.5571C7.2796 14.1263 4.76161 14.325 3.33106 16.0008C1.90052 17.6765 2.09913 20.1949 3.77467 21.6256C5.45022 23.0564 7.9682 22.8577 9.39875 21.182Z" fill="#B4BA3A"/>
<path d="M6.36502 22.0793C8.29156 22.0793 9.85333 20.5173 9.85333 18.5905C9.85333 16.6637 8.29156 15.1017 6.36502 15.1017C4.43848 15.1017 2.87671 16.6637 2.87671 18.5905C2.87671 20.5173 4.43848 22.0793 6.36502 22.0793Z" fill="white"/>
<path d="M7.53905 17.7729L8.92516 17.0259C9.04195 16.9614 9.07575 16.8108 8.99584 16.7001C8.82681 16.4665 8.63011 16.2544 8.40575 16.07C8.30126 15.9839 8.14759 16.0085 8.0769 16.1222L7.25015 17.4655C7.13029 17.6561 7.34236 17.8805 7.53905 17.7729Z" fill="#D3D37A"/>
<path d="M6.20212 21.5844V19.9368C6.20212 19.7155 5.91322 19.6356 5.79643 19.8231L4.92974 21.2309C4.86212 21.3416 4.90207 21.4891 5.01886 21.5414C5.31391 21.6736 5.63047 21.7658 5.9624 21.8057C6.09455 21.818 6.20212 21.7104 6.20212 21.5844Z" fill="#D3D37A"/>
<path d="M6.52791 20.0997V21.5813C6.52791 21.7104 6.63855 21.8149 6.76763 21.7995C7.03502 21.7657 7.29319 21.7011 7.53906 21.6059C7.65892 21.5597 7.70502 21.4153 7.64355 21.3015L6.93974 19.9952C6.83217 19.7954 6.52791 19.8722 6.52791 20.0997Z" fill="#D3D37A"/>
<path d="M5.08955 15.8763L5.79336 17.1827C5.90093 17.3825 6.2052 17.3056 6.2052 17.0782V15.5966C6.2052 15.4675 6.09455 15.363 5.96547 15.3783C5.69809 15.4121 5.43992 15.4767 5.19405 15.572C5.07419 15.6181 5.02809 15.7626 5.08955 15.8763Z" fill="#D3D37A"/>
<path d="M7.87713 18.4275H9.35851C9.48759 18.4275 9.59209 18.3169 9.57672 18.1878C9.54291 17.9204 9.47837 17.6622 9.38309 17.4163C9.33699 17.2964 9.19254 17.2503 9.07883 17.3117L7.77263 18.0156C7.57286 18.1232 7.6497 18.4275 7.87713 18.4275Z" fill="#D3D37A"/>
<path d="M9.3124 19.9368C9.44456 19.6417 9.53676 19.3251 9.57671 18.9932C9.59208 18.8671 9.48758 18.7565 9.3585 18.7565H7.71116C7.48987 18.7565 7.40997 19.0454 7.59744 19.1622L9.00506 20.029C9.11263 20.0905 9.26015 20.0536 9.3124 19.9368Z" fill="#D3D37A"/>
<path d="M5.19405 19.405L3.80795 20.152C3.69116 20.2165 3.65735 20.3671 3.73726 20.4778C3.9063 20.7145 4.103 20.9235 4.32736 21.1079C4.43185 21.194 4.58552 21.1694 4.65621 21.0557L5.48295 19.7124C5.59974 19.5218 5.39075 19.3005 5.19405 19.405Z" fill="#D3D37A"/>
<path d="M7.18254 19.7616L7.92938 21.1479C7.99392 21.2647 8.14452 21.2985 8.25516 21.2186C8.49181 21.0495 8.7008 20.8528 8.88521 20.6284C8.97126 20.5239 8.94668 20.3702 8.83296 20.2995L7.48988 19.4727C7.29933 19.3558 7.07497 19.5649 7.18254 19.7616Z" fill="#D3D37A"/>
<path d="M4.85597 18.7534H3.37459C3.24551 18.7534 3.14101 18.8641 3.15638 18.9932C3.19019 19.2606 3.25473 19.5188 3.35 19.7647C3.39611 19.8846 3.54056 19.9307 3.65427 19.8692L4.96047 19.1653C5.16024 19.0547 5.0834 18.7534 4.85597 18.7534Z" fill="#D3D37A"/>
<path d="M3.41763 17.2442C3.2824 17.5393 3.19327 17.8559 3.15331 18.1878C3.13795 18.3139 3.24244 18.4245 3.37152 18.4245H5.01887C5.24015 18.4245 5.32006 18.1356 5.13258 18.0188L3.72497 17.152C3.62047 17.0905 3.47295 17.1274 3.41763 17.2442Z" fill="#D3D37A"/>
<path d="M5.55056 17.4194L4.80373 16.0331C4.73918 15.9163 4.58859 15.8825 4.47794 15.9624C4.24129 16.1314 4.0323 16.3282 3.8479 16.5526C3.76184 16.6571 3.78643 16.8108 3.90015 16.8815L5.24322 17.7083C5.43377 17.8251 5.65506 17.6161 5.55056 17.4194Z" fill="#D3D37A"/>
<path d="M6.52791 15.5966V17.2441C6.52791 17.4655 6.81681 17.5454 6.9336 17.3579L7.8003 15.9501C7.86791 15.8394 7.82796 15.6919 7.71117 15.6396C7.41612 15.5074 7.09956 15.4152 6.76763 15.3753C6.63855 15.363 6.52791 15.4675 6.52791 15.5966Z" fill="#D3D37A"/>
<path d="M18.2432 41.6515C18.5874 39.4751 17.1023 37.4317 14.9261 37.0875C12.75 36.7433 10.707 38.2286 10.3628 40.4051C10.0187 42.5815 11.5038 44.6248 13.6799 44.969C15.856 45.3132 17.8991 43.8279 18.2432 41.6515Z" fill="#87A820"/>
<path d="M13.8918 44.7549C16.095 44.7549 17.8811 42.9686 17.8811 40.7651C17.8811 38.5616 16.095 36.7753 13.8918 36.7753C11.6886 36.7753 9.90251 38.5616 9.90251 40.7651C9.90251 42.9686 11.6886 44.7549 13.8918 44.7549Z" fill="#B4BA3A"/>
<path d="M13.8918 44.2538C15.8183 44.2538 17.3801 42.6919 17.3801 40.765C17.3801 38.8382 15.8183 37.2762 13.8918 37.2762C11.9652 37.2762 10.4035 38.8382 10.4035 40.765C10.4035 42.6919 11.9652 44.2538 13.8918 44.2538Z" fill="white"/>
<path d="M15.0627 39.9506L16.4488 39.2037C16.5656 39.1391 16.5994 38.9885 16.5195 38.8779C16.3505 38.6442 16.1538 38.4321 15.9294 38.2477C15.8249 38.1616 15.6713 38.1862 15.6006 38.3L14.7738 39.6432C14.6571 39.8338 14.866 40.0551 15.0627 39.9506Z" fill="#D3D37A"/>
<path d="M13.7289 43.7591V42.1115C13.7289 41.8902 13.44 41.8103 13.3232 41.9978L12.4565 43.4056C12.3889 43.5163 12.4288 43.6638 12.5456 43.7161C12.8407 43.8482 13.1572 43.9404 13.4892 43.9804C13.6182 43.9927 13.7289 43.8882 13.7289 43.7591Z" fill="#D3D37A"/>
<path d="M14.0547 42.2774V43.759C14.0547 43.8881 14.1653 43.9926 14.2944 43.9772C14.5618 43.9434 14.8199 43.8789 15.0658 43.7836C15.1857 43.7375 15.2318 43.593 15.1703 43.4793L14.4665 42.1729C14.3559 41.9731 14.0547 42.0499 14.0547 42.2774Z" fill="#D3D37A"/>
<path d="M12.6132 38.054L13.3171 39.3604C13.4246 39.5602 13.7289 39.4834 13.7289 39.2559V37.7743C13.7289 37.6452 13.6182 37.5407 13.4892 37.5561C13.2218 37.5899 12.9636 37.6544 12.7177 37.7497C12.6009 37.7958 12.5518 37.9403 12.6132 38.054Z" fill="#D3D37A"/>
<path d="M15.4008 40.6053H16.8822C17.0113 40.6053 17.1158 40.4946 17.1004 40.3655C17.0666 40.0981 17.0021 39.8399 16.9068 39.594C16.8607 39.4741 16.7162 39.428 16.6025 39.4895L15.2963 40.1934C15.0966 40.301 15.1734 40.6053 15.4008 40.6053Z" fill="#D3D37A"/>
<path d="M16.8392 42.1115C16.9744 41.8164 17.0635 41.4998 17.1035 41.1678C17.1188 41.0418 17.0143 40.9312 16.8853 40.9312H15.2379C15.0166 40.9312 14.9367 41.2201 15.1242 41.3369L16.5318 42.2037C16.6363 42.2683 16.7838 42.2283 16.8392 42.1115Z" fill="#D3D37A"/>
<path d="M12.7177 41.5828L11.3316 42.3297C11.2148 42.3943 11.181 42.5449 11.2609 42.6555C11.43 42.8922 11.6267 43.1012 11.851 43.2857C11.9555 43.3717 12.1092 43.3471 12.1799 43.2334L13.0066 41.8902C13.1265 41.6996 12.9144 41.4752 12.7177 41.5828Z" fill="#D3D37A"/>
<path d="M14.7062 41.9393L15.4531 43.3256C15.5176 43.4424 15.6682 43.4762 15.7788 43.3963C16.0155 43.2272 16.2245 43.0305 16.4089 42.8061C16.4949 42.7016 16.4704 42.5479 16.3566 42.4772L15.0136 41.6504C14.823 41.5305 14.6017 41.7426 14.7062 41.9393Z" fill="#D3D37A"/>
<path d="M12.3797 40.9281H10.8983C10.7692 40.9281 10.6647 41.0388 10.6801 41.1679C10.7139 41.4353 10.7784 41.6935 10.8737 41.9394C10.9198 42.0593 11.0643 42.1054 11.178 42.0439L12.4842 41.34C12.6839 41.2324 12.6071 40.9281 12.3797 40.9281Z" fill="#D3D37A"/>
<path d="M10.9444 39.4218C10.8092 39.7169 10.72 40.0335 10.6801 40.3655C10.6647 40.4915 10.7692 40.6022 10.8983 40.6022H12.5456C12.7669 40.6022 12.8468 40.3132 12.6593 40.1964L11.2517 39.3296C11.1442 39.265 10.9966 39.305 10.9444 39.4218Z" fill="#D3D37A"/>
<path d="M13.0743 39.5941L12.3274 38.2078C12.2629 38.091 12.1123 38.0571 12.0016 38.1371C11.765 38.3061 11.556 38.5028 11.3716 38.7272C11.2855 38.8317 11.3101 38.9854 11.4238 39.0561L12.7669 39.883C12.9575 40.0029 13.1818 39.7908 13.0743 39.5941Z" fill="#D3D37A"/>
<path d="M14.0547 37.7712V39.4188C14.0547 39.6401 14.3436 39.72 14.4604 39.5325L15.3271 38.1247C15.3947 38.0141 15.3547 37.8665 15.2379 37.8143C14.9429 37.6821 14.6263 37.5899 14.2944 37.5499C14.1622 37.5376 14.0547 37.6452 14.0547 37.7712Z" fill="#D3D37A"/>
<path d="M18.299 41.2538C20.5022 41.2538 22.2883 39.4675 22.2883 37.264C22.2883 35.0605 20.5022 33.2742 18.299 33.2742C16.0958 33.2742 14.3098 35.0605 14.3098 37.264C14.3098 39.4675 16.0958 41.2538 18.299 41.2538Z" fill="#87A820"/>
<path d="M17.8872 40.9894C20.0904 40.9894 21.8765 39.2031 21.8765 36.9996C21.8765 34.7961 20.0904 33.0098 17.8872 33.0098C15.684 33.0098 13.8979 34.7961 13.8979 36.9996C13.8979 39.2031 15.684 40.9894 17.8872 40.9894Z" fill="#B4BA3A"/>
<path d="M17.8872 40.4883C19.8137 40.4883 21.3755 38.9264 21.3755 36.9995C21.3755 35.0727 19.8137 33.5107 17.8872 33.5107C15.9606 33.5107 14.3989 35.0727 14.3989 36.9995C14.3989 38.9264 15.9606 40.4883 17.8872 40.4883Z" fill="white"/>
<path d="M19.0582 36.1851L20.4443 35.4382C20.561 35.3736 20.5949 35.223 20.5149 35.1123C20.3459 34.8757 20.1492 34.6666 19.9249 34.4822C19.8204 34.3961 19.6667 34.4207 19.596 34.5345L18.7693 35.8777C18.6494 36.0683 18.8615 36.2927 19.0582 36.1851Z" fill="#D3D37A"/>
<path d="M17.7243 39.9936V38.346C17.7243 38.1247 17.4354 38.0448 17.3186 38.2323L16.4519 39.6401C16.3843 39.7508 16.4242 39.8983 16.541 39.9506C16.8361 40.0827 17.1526 40.1749 17.4846 40.2149C17.6137 40.2272 17.7243 40.1227 17.7243 39.9936Z" fill="#D3D37A"/>
<path d="M18.047 38.5119V39.9935C18.047 40.1226 18.1577 40.2271 18.2867 40.2117C18.5541 40.1779 18.8123 40.1134 19.0582 40.0181C19.178 39.972 19.2241 39.8275 19.1627 39.7138L18.4588 38.4074C18.3513 38.2076 18.047 38.2844 18.047 38.5119Z" fill="#D3D37A"/>
<path d="M16.6086 34.2885L17.3125 35.5949C17.42 35.7947 17.7243 35.7179 17.7243 35.4904V34.0088C17.7243 33.8797 17.6137 33.7752 17.4846 33.7906C17.2172 33.8244 16.959 33.8889 16.7131 33.9842C16.5964 34.0303 16.5472 34.1748 16.6086 34.2885Z" fill="#D3D37A"/>
<path d="M19.3962 36.8398H20.8776C21.0067 36.8398 21.1112 36.7291 21.0958 36.6C21.062 36.3326 20.9975 36.0744 20.9022 35.8285C20.8561 35.7086 20.7116 35.6625 20.5979 35.724L19.2917 36.4279C19.092 36.5355 19.1688 36.8398 19.3962 36.8398Z" fill="#D3D37A"/>
<path d="M20.8346 38.346C20.9698 38.0509 21.0589 37.7343 21.0989 37.4023C21.1143 37.2763 21.0098 37.1656 20.8807 37.1656H19.2333C19.0121 37.1656 18.9322 37.4546 19.1196 37.5714L20.5272 38.4382C20.6317 38.5028 20.7793 38.4628 20.8346 38.346Z" fill="#D3D37A"/>
<path d="M16.7131 37.8173L15.327 38.5642C15.2102 38.6288 15.1764 38.7794 15.2564 38.89C15.4254 39.1236 15.6221 39.3357 15.8464 39.5202C15.9509 39.6062 16.1046 39.5816 16.1753 39.4679L17.002 38.1247C17.1219 37.9341 16.9098 37.7097 16.7131 37.8173Z" fill="#D3D37A"/>
<path d="M18.7016 38.1738L19.4485 39.5601C19.513 39.6769 19.6636 39.7107 19.7743 39.6308C20.0109 39.4617 20.2199 39.265 20.4043 39.0406C20.4904 38.9361 20.4658 38.7824 20.3521 38.7117L19.009 37.8848C18.8184 37.765 18.5971 37.9771 18.7016 38.1738Z" fill="#D3D37A"/>
<path d="M16.3751 37.1626H14.8937C14.7646 37.1626 14.6601 37.2733 14.6755 37.4024C14.7093 37.6698 14.7738 37.928 14.8691 38.1739C14.9152 38.2938 15.0597 38.3399 15.1734 38.2784L16.4796 37.5745C16.6793 37.4669 16.6025 37.1626 16.3751 37.1626Z" fill="#D3D37A"/>
<path d="M14.9398 35.6564C14.8046 35.9515 14.7154 36.2681 14.6755 36.6001C14.6601 36.7261 14.7646 36.8368 14.8937 36.8368H16.541C16.7623 36.8368 16.8422 36.5478 16.6548 36.431L15.2471 35.5642C15.1396 35.4997 14.992 35.5396 14.9398 35.6564Z" fill="#D3D37A"/>
<path d="M17.0697 35.8286L16.3228 34.4423C16.2583 34.3255 16.1077 34.2916 15.997 34.3716C15.7604 34.5406 15.5514 34.7373 15.367 34.9617C15.2809 35.0662 15.3055 35.2199 15.4192 35.2906L16.7623 36.1175C16.9529 36.2374 17.1772 36.0253 17.0697 35.8286Z" fill="#D3D37A"/>
<path d="M18.047 34.0088V35.6564C18.047 35.8777 18.3359 35.9576 18.4527 35.7701L19.3194 34.3623C19.387 34.2516 19.3471 34.1041 19.2303 34.0518C18.9352 33.9197 18.6187 33.8274 18.2867 33.7875C18.1577 33.7752 18.047 33.8797 18.047 34.0088Z" fill="#D3D37A"/>
<path d="M19.8726 37.0765C21.0682 37.1779 22.4727 36.9351 22.9552 36.0714C23.3486 35.3675 22.9706 34.5314 22.568 33.809C21.1204 31.2055 19.2887 28.6942 16.8207 26.6193C14.3528 24.5414 11.6144 22.6264 8.15372 22.0055C7.38845 21.8672 6.93666 21.6028 6.19597 21.775C5.45528 21.9471 4.36115 23.0445 4.30275 23.6654C4.25665 24.1633 4.33656 25.0425 4.65927 25.482C7.29317 29.0845 9.95474 32.2229 14.0116 34.8603C15.7174 35.973 17.712 36.8982 19.8726 37.0765Z" fill="#7F3A13"/>
<path d="M22.568 33.809C21.1204 31.2055 19.2887 28.6942 16.8207 26.6193C14.9552 25.0517 12.7085 23.7361 10.2283 22.9215C10.5817 23.9635 10.3051 24.9564 10.9905 26.023C12.6378 29.1522 17.294 31.6543 16.4642 35.4535C16.4089 35.6687 16.329 35.8777 16.2275 36.0867C17.3678 36.6001 18.591 36.972 19.8726 37.0765C21.0682 37.1779 22.4727 36.9351 22.9552 36.0714C23.3486 35.3674 22.9706 34.5344 22.568 33.809Z" fill="#34292A"/>
<path d="M12.856 36.5386C12.7976 36.1513 13.7473 36.6462 14.0301 35.6902C14.4573 34.2609 12.1215 32.3951 12.3889 30.8766C12.6563 29.3581 12.1184 27.5876 11.7588 26.0968C11.3808 24.5169 10.5725 23.0875 9.11263 22.5588L6.8629 21.4523C6.10992 21.357 4.89285 21.8488 4.49331 22.5312C4.0907 23.2136 3.89707 24.2894 3.894 25.0886C3.88785 27.4124 5.59052 29.7485 6.77685 31.6973C7.96318 33.6461 9.49066 35.3275 11.0212 36.9874C11.4115 37.4116 11.9832 37.8696 12.478 37.5776C12.8038 37.3839 12.9144 36.9259 12.856 36.5386Z" fill="#BB672E"/>
<path d="M8.27974 31.5098C7.87405 30.8766 7.7757 30.0958 7.44685 29.4165C6.73074 27.9349 5.01886 27.1111 4.34271 25.6111C5.53212 29.853 7.93552 33.7076 11.1257 36.7445C11.3777 35.4935 10.9321 34.184 10.0592 33.2526C9.48758 32.6471 8.72538 32.2137 8.27974 31.5098Z" fill="#7F3A13"/>
<path d="M13.148 34.2824C13.1019 34.2578 13.0527 34.2394 13.0005 34.2394C12.8284 34.2394 12.7546 34.4515 12.6347 34.5714C12.3674 34.8419 11.8295 34.6759 11.599 34.9771C11.5037 35.1001 11.4945 35.2722 11.5252 35.4259C11.556 35.5796 11.6205 35.724 11.6605 35.8716C11.7281 36.1206 11.725 36.3818 11.7834 36.6339C11.8418 36.8859 11.974 37.1411 12.2137 37.2394C12.4165 37.3224 12.6532 37.2733 12.8407 37.1595C13.0281 37.0458 13.1757 36.8798 13.314 36.7107C13.5168 36.4679 13.7197 36.2128 13.8211 35.9085C14.0239 35.3029 13.7197 34.5683 13.148 34.2824Z" fill="#7F3A13"/>
<path d="M14.531 43.4732C14.7708 43.7345 15.2471 43.7683 15.6037 43.6454C15.9602 43.5224 16.2276 43.2765 16.4919 43.046C16.7593 42.8154 17.0512 42.588 17.4262 42.508C17.7366 42.4435 18.0716 42.4865 18.3912 42.4496C18.7109 42.4127 19.0489 42.2437 19.0643 41.9763C19.0766 41.758 18.8707 41.5736 18.6801 41.4138C16.4734 39.5541 14.737 37.3133 13.6336 34.888C13.0435 34.596 12.5487 34.6851 12.1031 35.0571C11.7066 35.386 11.6636 35.9884 12.0109 36.3727C12.6102 37.0366 13.1726 37.7221 13.6981 38.426C14.1192 38.9916 14.5218 39.5756 14.7493 40.2057C14.9798 40.8389 15.0259 41.5306 14.7431 42.133C14.6417 42.3513 14.4972 42.5572 14.4235 42.7847C14.3528 43.0183 14.3559 43.2796 14.531 43.4732Z" fill="#EAC17F"/>
<path d="M16.3382 41.8748C16.2521 41.6566 16.1015 41.463 15.8926 41.3523C15.828 42.0316 15.5237 42.6863 15.0443 43.1689C15.5145 43.3595 16.1169 43.1259 16.3321 42.6648C16.3443 42.6372 16.3505 42.6095 16.3597 42.5818C16.372 42.5757 16.3843 42.5665 16.3966 42.5603C16.5687 42.4497 16.7132 42.296 16.8115 42.1146C17.1957 42.3175 17.6936 42.2744 18.0378 42.0101C17.4692 41.9486 16.9037 41.9056 16.3382 41.8748Z" fill="#7F3A13"/>
<path d="M16.5287 41.715C16.6578 41.7396 16.7961 41.6996 16.9037 41.6258C16.9098 41.5213 16.8361 41.426 16.747 41.3768C16.6548 41.3277 16.5503 41.3154 16.4458 41.3031C16.3935 41.2969 16.329 41.2939 16.2921 41.3307C16.2614 41.3615 16.2552 41.4076 16.2614 41.4506C16.2798 41.5859 16.3997 41.6904 16.5287 41.715Z" fill="#7F3A13"/>
<path d="M6.03616 22.0916C5.53827 22.3222 5.25551 22.8171 5.10184 23.3089C4.77914 24.3386 4.89285 25.4851 5.4184 26.4565C6.30662 28.1071 8.20291 29.103 9.463 30.5416C10.4188 31.6328 10.9843 32.9515 11.599 34.224C11.7097 34.4515 11.9033 34.722 12.1707 34.682C12.352 34.6544 12.4626 34.4884 12.5272 34.3316C12.7577 33.766 12.6747 33.1298 12.4934 32.5427C12.3151 31.9556 12.0416 31.393 11.891 30.7998C11.4238 28.9524 12.1522 26.9268 11.3132 25.1839C10.7661 24.0466 9.63204 23.232 8.47951 22.5619C8.1107 22.3468 7.72653 22.1408 7.30547 22.0302C6.89056 21.9195 6.42341 21.9133 6.03616 22.0916Z" fill="#D68C5B"/>
<path d="M12.3028 29.2628C12.0354 30.8458 12.4719 32.5272 13.4922 33.852C13.3785 32.2813 12.9759 30.7229 12.3028 29.2628Z" fill="#D68C5B"/>
<path d="M11.2271 26.4872C11.1933 25.5435 10.7077 24.6521 10.0285 23.9974C9.3462 23.3457 8.47951 22.9123 7.58207 22.6172C7.1856 22.4881 6.72767 22.3898 6.3773 22.6172C5.97468 22.8785 5.91629 23.4472 6.01156 23.9175C6.24207 25.0394 7.08111 25.9247 7.914 26.7085C8.74689 27.4923 9.64432 28.2854 10.0531 29.3551C10.3696 30.185 10.4188 31.2148 11.138 31.7342C11.4177 31.2854 11.4207 30.7168 11.3347 30.1942C11.2486 29.6717 11.0827 29.1614 11.0581 28.6327C11.0243 27.9165 11.2517 27.2065 11.2271 26.4872Z" fill="#EAC17F"/>
<path d="M11.9924 33.1697C12.1614 32.6472 11.9156 32.0232 11.4392 31.7527C11.2579 32.183 11.2364 32.6779 11.3808 33.1205C11.4361 33.2865 11.5591 33.474 11.7312 33.4525C11.8664 33.4371 11.9525 33.2988 11.9924 33.1697Z" fill="#EAC17F"/>
<path d="M20.4043 7.01137C19.5438 6.538 18.465 6.82694 17.5798 7.25113C14.2514 8.84337 12.6778 11.5422 9.82566 13.8814C9.10649 12.2676 8.08304 11.0135 6.93667 9.67023C6.63547 9.60568 5.76263 10.1252 5.69809 10.4264C5.63354 10.7276 5.73189 11.035 5.82717 11.327C6.31584 12.8148 6.6785 14.3332 7.06882 15.8486C7.35465 16.9614 7.52368 18.3015 8.37502 19.153C8.8391 19.6202 9.5091 19.8846 10.1699 19.8508C11.0243 19.8047 11.4607 19.2821 11.9986 18.695C12.5886 18.0464 13.231 17.444 13.9317 16.9122C15.3455 15.8394 16.9682 15.0986 18.6094 14.447C19.9095 13.9306 21.0897 12.6764 21.6152 11.3793C21.8703 10.7461 21.8334 10.0329 21.7228 9.3567C21.5722 8.4407 21.2218 7.46015 20.4043 7.01137Z" fill="#BB672E"/>
<path d="M21.7259 9.35975C21.5722 8.44375 21.2218 7.46012 20.4074 7.01441C19.9371 6.75621 19.4055 6.72547 18.8738 6.82076C16.0923 8.45297 13.6551 10.4786 12.2014 12.9008C10.9628 15.074 11.4331 18.1663 9.35851 19.7462C9.62282 19.8292 9.89942 19.8692 10.173 19.8569C11.0274 19.8108 11.4638 19.2882 12.0016 18.7011C12.5917 18.0525 13.2341 17.4501 13.9348 16.9183C15.3486 15.8455 16.9713 15.1047 18.6125 14.4531C19.9126 13.9367 21.0927 12.6826 21.6183 11.3854C21.8734 10.746 21.8365 10.0329 21.7259 9.35975Z" fill="#7F3A13"/>
<path d="M20.7055 7.61693C20.309 7.17122 19.6267 7.13126 19.0366 7.21733C16.747 7.54931 14.8814 9.2061 13.3509 10.9428C12.5794 11.8158 11.8541 12.7318 11.178 13.6816C10.9843 13.9552 10.7846 14.2933 10.9136 14.6037C11.0028 14.8189 11.2333 14.948 11.4638 14.9788C11.6943 15.0095 11.9279 14.9572 12.1522 14.9019C14.7769 14.2533 17.2264 12.9623 19.3071 11.2348C20.0755 10.5955 20.8377 9.82394 20.9944 8.83724C21.0589 8.40998 20.9913 7.93968 20.7055 7.61693Z" fill="#D68C5B"/>
<path d="M10.0623 15.7503C9.8564 14.5669 9.28475 13.4849 8.71924 12.4244C8.29511 11.6283 7.84639 10.8045 7.118 10.2696C6.93667 10.1375 6.69387 10.0268 6.50025 10.1375C6.31891 10.2451 6.28511 10.494 6.31584 10.7031C6.38653 11.1979 6.67543 11.6283 6.93052 12.0617C7.5913 13.1867 8.05231 14.4285 8.28589 15.7134C8.35043 16.0669 8.39961 16.4327 8.58094 16.7431C8.76227 17.0536 9.11264 17.2964 9.46608 17.2257C9.75498 17.1673 9.97319 16.9091 10.0592 16.6263C10.1392 16.3466 10.1115 16.0423 10.0623 15.7503Z" fill="#D68C5B"/>
<path d="M7.50524 11.5176C7.45914 11.1303 7.22864 10.7706 6.89671 10.5647C6.83831 10.7829 6.77992 11.0073 6.80451 11.2317C6.82909 11.4561 6.94588 11.6836 7.1518 11.7789C7.25937 11.828 7.40689 11.828 7.47451 11.7297C7.51446 11.6682 7.51446 11.5914 7.50524 11.5176Z" fill="#EAC17F"/>
<path d="M8.74075 14.3608C8.68543 14.2256 8.53176 14.161 8.43034 14.0565C8.30125 13.9213 8.2613 13.7276 8.22749 13.5463C8.12607 13.0084 8.02157 12.4704 7.92015 11.9294C8.7807 13.1067 9.59515 14.3731 9.86869 15.8025C9.91786 16.0637 9.94859 16.3435 9.84103 16.5863C9.73346 16.8291 9.44456 17.0105 9.19869 16.909C9.30011 16.6232 9.40153 16.3281 9.4046 16.0238C9.40768 15.7195 9.29089 15.3967 9.03887 15.2307C8.93437 15.1631 8.80529 15.1139 8.7469 15.0063C8.6424 14.8127 8.82373 14.5637 8.74075 14.3608Z" fill="#EAC17F"/>
<path d="M17.9978 9.46432C18.3021 9.13849 18.8031 9.14157 19.2395 9.0555C19.4853 9.00632 19.7343 8.91718 19.9156 8.74197C20.097 8.56984 20.2045 8.29934 20.1308 8.05651C20.0017 7.63846 19.4638 7.53088 19.0274 7.5524C18.4957 7.57699 17.9671 7.6815 17.4692 7.85978C15.6805 8.50221 14.3835 10.0361 13.1726 11.5023C12.7331 12.034 12.2905 12.572 11.9709 13.1837C11.9063 13.3035 11.848 13.448 11.9002 13.574C11.9709 13.7431 12.2137 13.7769 12.3766 13.6908C12.5395 13.6078 12.647 13.4449 12.7577 13.2974C13.1818 12.7349 13.778 12.3015 14.4419 12.0679C14.9521 11.8896 15.5637 11.7851 15.8434 11.324C16.0278 11.0228 16.0308 10.6139 16.289 10.3711C16.6517 10.0299 17.3032 10.2143 17.672 9.87929C17.8042 9.76556 17.878 9.59342 17.9978 9.46432Z" fill="#EAC17F"/>
<path d="M29.4432 37.0765C28.2476 37.1779 26.8431 36.9351 26.3606 36.0714C25.9672 35.3675 26.3452 34.5314 26.7478 33.809C28.1954 31.2055 30.0271 28.6942 32.4951 26.6193C34.963 24.5414 37.7014 22.6264 41.162 22.0055C41.9273 21.8672 42.3791 21.6028 43.1198 21.775C43.8605 21.9471 44.9546 23.0445 45.013 23.6654C45.0591 24.1633 44.9792 25.0425 44.6565 25.482C42.0226 29.0845 39.361 32.2229 35.3041 34.8603C33.5984 35.973 31.6038 36.8982 29.4432 37.0765Z" fill="#7F3A13"/>
<path d="M26.7478 33.809C28.1954 31.2055 30.0271 28.6942 32.4951 26.6193C34.3606 25.0517 36.6073 23.7361 39.0875 22.9215C38.7341 23.9635 39.0107 24.9564 38.3253 26.023C36.678 29.1522 32.0218 31.6543 32.8516 35.4535C32.9069 35.6687 32.9868 35.8777 33.0882 36.0867C31.948 36.6001 30.7248 36.972 29.4432 37.0765C28.2476 37.1779 26.8431 36.9351 26.3606 36.0714C25.9672 35.3674 26.3452 34.5344 26.7478 33.809Z" fill="#34292A"/>
<path d="M36.4597 36.5386C36.5181 36.1513 35.5685 36.6462 35.2857 35.6902C34.8585 34.2609 37.1943 32.3951 36.9269 30.8766C36.6595 29.3581 37.1974 27.5876 37.5569 26.0968C37.935 24.5169 38.7433 23.0875 40.2031 22.5588L42.4529 21.4523C43.2059 21.357 44.4229 21.8488 44.8225 22.5312C45.2251 23.2136 45.4187 24.2894 45.4218 25.0886C45.4279 27.4124 43.7253 29.7485 42.5389 31.6973C41.3526 33.6461 39.8251 35.3275 38.2946 36.9874C37.9042 37.4116 37.3326 37.8696 36.8378 37.5776C36.512 37.3839 36.4013 36.9259 36.4597 36.5386Z" fill="#BB672E"/>
<path d="M41.036 31.5098C41.4417 30.8766 41.5401 30.0958 41.8689 29.4165C42.585 27.9349 44.2969 27.1111 44.9731 25.6111C43.7836 29.8499 41.3802 33.7045 38.1901 36.7414C37.938 35.4904 38.3837 34.1809 39.2596 33.2496C39.8282 32.6471 40.5904 32.2137 41.036 31.5098Z" fill="#7F3A13"/>
<path d="M36.1647 34.2824C36.2108 34.2578 36.26 34.2394 36.3122 34.2394C36.4843 34.2394 36.5581 34.4515 36.6779 34.5714C36.9453 34.8419 37.4832 34.6759 37.7137 34.9771C37.809 35.1001 37.8182 35.2722 37.7874 35.4259C37.7567 35.5796 37.6922 35.724 37.6522 35.8716C37.5846 36.1206 37.5877 36.3818 37.5293 36.6339C37.4709 36.8859 37.3387 37.1411 37.099 37.2394C36.8962 37.3224 36.6595 37.2733 36.472 37.1595C36.2846 37.0458 36.137 36.8798 35.9987 36.7107C35.7959 36.4679 35.593 36.2128 35.4916 35.9085C35.2918 35.3029 35.5961 34.5683 36.1647 34.2824Z" fill="#7F3A13"/>
<path d="M34.7847 43.4732C34.545 43.7345 34.0686 43.7683 33.7121 43.6454C33.3556 43.5224 33.0882 43.2765 32.8239 43.046C32.5565 42.8154 32.2645 42.588 31.8896 42.508C31.5792 42.4435 31.2442 42.4865 30.9245 42.4496C30.6049 42.4127 30.2668 42.2437 30.2515 41.9763C30.2392 41.758 30.4451 41.5736 30.6356 41.4138C32.8423 39.5541 34.5788 37.3133 35.6822 34.888C36.2723 34.596 36.7671 34.6851 37.2127 35.0571C37.6092 35.386 37.6522 35.9884 37.3049 36.3727C36.7056 37.0366 36.1432 37.7221 35.6176 38.426C35.1966 38.9916 34.794 39.5756 34.5665 40.2057C34.336 40.8389 34.2899 41.5306 34.5727 42.133C34.6741 42.3513 34.8185 42.5572 34.8923 42.7847C34.963 43.0183 34.9599 43.2796 34.7847 43.4732Z" fill="#EAC17F"/>
<path d="M32.9776 41.8748C33.0636 41.6566 33.2142 41.463 33.4232 41.3523C33.4847 42.0316 33.792 42.6863 34.2715 43.1689C33.8012 43.3595 33.1989 43.1259 32.9837 42.6648C32.9714 42.6372 32.9653 42.6095 32.9561 42.5818C32.9438 42.5757 32.9315 42.5665 32.9192 42.5603C32.7471 42.4497 32.6026 42.296 32.5043 42.1146C32.1201 42.3175 31.6222 42.2744 31.278 42.0101C31.8466 41.9486 32.4121 41.9056 32.9776 41.8748Z" fill="#7F3A13"/>
<path d="M32.787 41.715C32.6579 41.7396 32.5196 41.6996 32.4121 41.6258C32.4059 41.5213 32.4797 41.426 32.5688 41.3768C32.661 41.3277 32.7655 41.3154 32.87 41.3031C32.9223 41.2969 32.9868 41.2939 33.0237 41.3307C33.0544 41.3615 33.0606 41.4076 33.0544 41.4506C33.0329 41.5859 32.9161 41.6904 32.787 41.715Z" fill="#7F3A13"/>
<path d="M43.2765 22.0916C43.7744 22.3222 44.0572 22.8171 44.2109 23.3089C44.5336 24.3386 44.4199 25.4851 43.8943 26.4565C43.003 28.1071 41.1098 29.103 39.8497 30.5416C38.8939 31.6328 38.3284 32.9515 37.7137 34.224C37.603 34.4515 37.4094 34.722 37.142 34.682C36.9607 34.6544 36.8501 34.4884 36.7855 34.3316C36.555 33.766 36.638 33.1298 36.8193 32.5427C36.9976 31.9556 37.2711 31.393 37.4217 30.7998C37.8889 28.9524 37.1605 26.9268 37.9995 25.1839C38.5466 24.0466 39.6807 23.232 40.8332 22.5619C41.202 22.3468 41.5862 22.1408 42.0072 22.0302C42.4221 21.9195 42.8924 21.9133 43.2765 22.0916Z" fill="#D68C5B"/>
<path d="M37.013 29.2628C37.2803 30.8458 36.8439 32.5272 35.8235 33.852C35.9373 32.2813 36.3399 30.7229 37.013 29.2628Z" fill="#D68C5B"/>
<path d="M38.0887 26.4872C38.1225 25.5435 38.6081 24.6521 39.2873 23.9974C39.9696 23.3457 40.8363 22.9123 41.7337 22.6172C42.1302 22.4881 42.5881 22.3898 42.9385 22.6172C43.3411 22.8785 43.3995 23.4472 43.3042 23.9175C43.0737 25.0394 42.2347 25.9247 41.4018 26.7085C40.5689 27.4923 39.6715 28.2854 39.2627 29.3551C38.9461 30.185 38.897 31.2148 38.1778 31.7342C37.8981 31.2854 37.895 30.7168 37.9811 30.1942C38.0671 29.6717 38.2331 29.1614 38.2577 28.6327C38.2915 27.9165 38.0641 27.2065 38.0887 26.4872Z" fill="#EAC17F"/>
<path d="M37.3234 33.1697C37.1543 32.6472 37.4002 32.0232 37.8766 31.7527C38.0579 32.183 38.0794 32.6779 37.935 33.1205C37.8797 33.2865 37.7567 33.474 37.5846 33.4525C37.4494 33.4371 37.3633 33.2988 37.3234 33.1697Z" fill="#EAC17F"/>
<path d="M28.9084 7.01137C29.7689 6.538 30.8477 6.82694 31.7328 7.25113C35.0613 8.84337 36.6349 11.5422 39.487 13.8814C40.2093 12.2676 41.2297 11.0135 42.376 9.67023C42.6772 9.60568 43.5501 10.1252 43.6146 10.4264C43.6792 10.7276 43.5808 11.035 43.4855 11.327C42.9969 12.8148 42.6342 14.3332 42.2439 15.8486C41.958 16.9614 41.789 18.3015 40.9377 19.153C40.4736 19.6202 39.8036 19.8846 39.1428 19.8508C38.2884 19.8047 37.852 19.2821 37.3141 18.695C36.7241 18.0464 36.0817 17.444 35.381 16.9122C33.9672 15.8394 32.3445 15.0986 30.7033 14.447C29.4032 13.9306 28.223 12.6764 27.6975 11.3793C27.4424 10.7461 27.4793 10.0329 27.5899 9.3567C27.7436 8.4407 28.0939 7.46015 28.9084 7.01137Z" fill="#BB672E"/>
<path d="M27.5899 9.35987C27.7436 8.44387 28.0939 7.46024 28.9084 7.01454C29.3786 6.75633 29.9103 6.7256 30.442 6.82089C33.2234 8.45309 35.6607 10.4787 37.1144 12.9009C38.353 15.0741 37.8827 18.1664 39.9573 19.7463C39.693 19.8293 39.4163 19.8693 39.1428 19.857C38.2884 19.8109 37.852 19.2883 37.3141 18.7012C36.7241 18.0527 36.0817 17.4502 35.381 16.9184C33.9672 15.8457 32.3445 15.1049 30.7033 14.4532C29.4032 13.9368 28.223 12.6827 27.6975 11.3855C27.4424 10.7462 27.4793 10.033 27.5899 9.35987Z" fill="#7F3A13"/>
<path d="M28.6103 7.61693C29.0067 7.17122 29.689 7.13126 30.2791 7.21733C32.5688 7.54931 34.4344 9.2061 35.9649 10.9428C36.7363 11.8158 37.4617 12.7318 38.1378 13.6816C38.3314 13.9552 38.5312 14.2933 38.4021 14.6037C38.313 14.8189 38.0825 14.948 37.852 14.9788C37.6215 15.0095 37.3879 14.9572 37.1635 14.9019C34.5389 14.2533 32.0894 12.9623 30.0087 11.2348C29.2403 10.5955 28.4781 9.82394 28.3214 8.83724C28.2568 8.40998 28.3244 7.93968 28.6103 7.61693Z" fill="#D68C5B"/>
<path d="M39.2535 15.7503C39.4594 14.5669 40.031 13.4849 40.5965 12.4244C41.0207 11.6283 41.4694 10.8045 42.1978 10.2696C42.3791 10.1375 42.6219 10.0268 42.8155 10.1375C42.9969 10.2451 43.0307 10.494 42.9999 10.7031C42.9292 11.1979 42.6403 11.6283 42.3853 12.0617C41.7245 13.1867 41.2635 14.4285 41.0299 15.7134C40.9653 16.0669 40.9162 16.4327 40.7348 16.7431C40.5535 17.0536 40.2031 17.2964 39.8497 17.2257C39.5608 17.1673 39.3426 16.9091 39.2565 16.6263C39.1766 16.3466 39.2043 16.0423 39.2535 15.7503Z" fill="#D68C5B"/>
<path d="M41.8105 11.5176C41.8566 11.1303 42.0871 10.7706 42.4191 10.5647C42.4775 10.7829 42.5359 11.0073 42.5113 11.2317C42.4867 11.4561 42.3699 11.6836 42.164 11.7789C42.0564 11.828 41.9089 11.828 41.8413 11.7297C41.8013 11.6682 41.8013 11.5914 41.8105 11.5176Z" fill="#EAC17F"/>
<path d="M40.575 14.3608C40.6303 14.2256 40.784 14.161 40.8854 14.0565C41.0145 13.9213 41.0545 13.7276 41.0883 13.5463C41.1897 13.0084 41.2942 12.4704 41.3956 11.9294C40.5351 13.1067 39.7206 14.3731 39.4471 15.8025C39.3979 16.0637 39.3672 16.3435 39.4747 16.5863C39.5823 16.8291 39.8712 17.0105 40.1171 16.909C40.0157 16.6232 39.9142 16.3281 39.9112 16.0238C39.9081 15.7195 40.0249 15.3967 40.2769 15.2307C40.3814 15.1631 40.5105 15.1139 40.5689 15.0063C40.6734 14.8127 40.492 14.5637 40.575 14.3608Z" fill="#EAC17F"/>
<path d="M31.3179 9.46432C31.0137 9.13849 30.5127 9.14157 30.0763 9.0555C29.8304 9.00632 29.5815 8.91718 29.4001 8.74197C29.2188 8.56984 29.1112 8.29934 29.185 8.05651C29.3141 7.63846 29.8519 7.53088 30.2884 7.5524C30.8201 7.57699 31.3487 7.6815 31.8466 7.85978C33.6353 8.50221 34.9323 10.0361 36.1432 11.5023C36.5827 12.034 37.0252 12.572 37.3449 13.1837C37.4094 13.3035 37.4678 13.448 37.4156 13.574C37.3449 13.7431 37.1021 13.7769 36.9392 13.6908C36.7763 13.6078 36.6687 13.4449 36.5581 13.2974C36.134 12.7349 35.5377 12.3015 34.8739 12.0679C34.3637 11.8896 33.7521 11.7851 33.4724 11.324C33.288 11.0228 33.2849 10.6139 33.0268 10.3711C32.6641 10.0299 32.0125 10.2143 31.6437 9.87929C31.5116 9.76556 31.4378 9.59342 31.3179 9.46432Z" fill="#EAC17F"/>
<path d="M37.4217 15.1601C36.2385 11.4562 33.9027 8.28705 31.0752 5.92942C30.3529 5.32695 29.394 4.75521 28.598 5.22551L27.3748 4.99805H22.7309L21.5077 5.22551C20.7117 4.75521 19.7527 5.32695 19.0305 5.92942C16.206 8.28705 13.8672 11.4562 12.6839 15.1601C11.5007 18.8641 11.5437 23.1121 13.1265 26.6255C14.362 29.3705 16.4273 31.5221 18.4496 33.6093C20.1953 35.4105 21.9379 37.2118 23.6836 39.0131C24.0647 39.4065 24.5473 39.8307 25.0482 39.6801C25.0513 39.6801 25.0513 39.677 25.0544 39.677C25.0574 39.677 25.0574 39.6801 25.0605 39.6801C25.5615 39.8307 26.044 39.4065 26.4251 39.0131C28.1708 37.2118 29.9134 35.4105 31.6591 33.6093C33.6814 31.5221 35.7467 29.3705 36.9822 26.6255C38.562 23.1091 38.605 18.8641 37.4217 15.1601Z" fill="#BB672E"/>
<path d="M16.3136 28.3007C16.6732 28.8356 16.7746 29.4964 16.9467 30.1173C17.5676 32.3336 19.1657 34.1195 20.7116 35.8224C21.7505 36.9628 22.7862 38.1062 23.825 39.2466C21.1573 37.0304 18.6648 34.6051 16.4212 31.9647C14.9459 30.2311 13.5629 28.3745 12.73 26.2535C11.1657 22.2791 11.6974 17.7329 13.2156 13.743C12.7331 16.073 12.2506 18.4337 12.392 20.8067C12.5333 23.1797 13.3724 25.608 15.1549 27.1818C15.5606 27.5384 16.0124 27.855 16.3136 28.3007Z" fill="#7F3A13"/>
<path d="M37.3848 15.2708C37.1728 14.6038 36.9208 13.9552 36.6349 13.322C37.3848 16.7002 37.6399 20.0383 36.8316 23.6655C36.2938 25.187 35.4886 24.935 34.4159 24.1726C34.4159 26.9637 33.3433 30.514 30.1193 31.5283C27.1473 32.6995 25.7735 36.6739 24.3137 39.674C24.535 39.7969 24.7685 39.8584 25.0083 39.7877C25.0113 39.7877 25.0113 39.7846 25.0144 39.7846C25.0175 39.7846 25.0175 39.7877 25.0206 39.7877C25.5215 39.9383 26.004 39.5141 26.3851 39.1207C28.1308 37.3194 29.8735 35.5182 31.6191 33.7169C33.6414 31.6298 35.7068 29.4781 36.9423 26.7331C38.5251 23.2228 38.5681 18.9748 37.3848 15.2708Z" fill="#34292A"/>
<path d="M28.2999 6.56262C27.6575 6.71324 27.1812 7.24501 26.548 7.42329C25.3894 7.74605 24.3014 6.81468 23.1489 6.47348C21.9625 6.12306 20.6348 6.42737 19.5899 7.06366C18.5449 7.70301 17.7458 8.64053 17.0635 9.62416C14.1653 13.7953 13.1142 19.0731 14.2083 23.9544C14.3221 24.4585 14.6509 25.0855 15.1857 24.9872C15.4469 24.9411 15.6344 24.7228 15.8772 24.6214C16.3597 24.4185 16.9437 24.732 17.2018 25.1685C17.46 25.605 17.4815 26.1245 17.5245 26.6255C17.8227 30.1635 19.4731 33.5847 22.1039 36.1175C22.5434 36.5417 23.0474 36.9597 23.6652 37.0673C24.4858 37.2087 25.3156 36.7538 25.8319 36.136C26.3483 35.515 26.6187 34.7527 26.9076 34.0119C28.0878 31.018 29.7505 28.2178 31.1735 25.3222C32.5965 22.4236 33.792 19.359 33.9396 16.1653C34.0871 12.9746 33.0667 9.61494 30.6049 7.42329C29.9749 6.86693 29.1358 6.3659 28.2999 6.56262Z" fill="#D68C5B"/>
<path d="M21.5138 7.27881C20.6225 6.87614 19.5868 7.4448 18.9106 8.15178C17.9671 9.13541 17.3493 10.4233 17.168 11.7728C17.0666 12.5289 17.1004 13.3004 16.9652 14.0505C16.8054 14.9296 16.4212 15.7472 16.1231 16.5894C15.6498 17.9204 15.3977 19.4082 15.8926 20.733C16.2706 21.7443 17.0482 22.5558 17.5399 23.5148C18.9014 26.1767 17.9579 29.7024 19.7128 32.1246C19.8726 32.3459 20.0693 32.5642 20.3305 32.641C20.8131 32.7824 21.3171 32.3674 21.4616 31.8848C21.6091 31.4022 21.5015 30.8858 21.4124 30.391C20.6471 26.2044 21.0405 21.8119 22.5372 17.8282C23.5146 15.2247 24.9806 12.6672 24.8546 9.8885C24.8239 9.17537 24.6702 8.43765 24.2399 7.86592C23.8066 7.29726 23.0413 6.93762 22.359 7.14357L21.5138 7.27881Z" fill="#EAC17F"/>
<path d="M27.0367 12.3783C27.1351 13.3896 27.3072 14.4409 27.9003 15.2677C28.1739 15.6489 28.6195 15.9932 29.0744 15.8825C29.4155 15.7995 29.646 15.4829 29.812 15.1724C30.356 14.1427 30.482 12.9439 30.4851 11.7789C30.4881 10.4295 30.3037 8.99096 29.4432 7.95201C29.0559 7.48479 28.4044 7.1067 27.8635 7.37413C27.4608 7.57393 27.2857 8.04422 27.1812 8.48071C26.883 9.75327 26.9107 11.0812 27.0367 12.3783Z" fill="#EAC17F"/>
<path d="M25.1834 37.1503C25.3125 37.43 25.4693 37.7251 25.7582 37.8573C26.2745 38.0939 26.8492 37.6882 27.258 37.3101C29.646 35.1062 31.9603 32.8039 33.7797 30.1604C35.5992 27.5169 36.9115 24.5015 37.1205 21.3569C37.3664 17.6314 36.0571 13.9459 34.2254 10.6385C33.8904 10.036 33.5892 8.72041 32.9469 9.01242C32.744 9.10464 32.3906 9.27062 31.822 9.15996C31.4194 9.08312 31.0506 9.41509 31.1059 9.82084C31.361 11.7481 31.1274 13.7308 30.4205 15.5535C30.1531 16.2421 29.7321 16.9829 28.9852 17.1796C28.4996 17.3087 27.9741 17.1734 27.4793 17.2626C26.7263 17.3948 26.1639 18.0218 25.8934 18.695C25.6229 19.3712 25.5799 20.1059 25.4816 20.8221C25.1927 22.9215 24.3813 24.9287 23.9725 27.0097C23.3056 30.4063 23.7328 33.9842 25.1834 37.1503Z" fill="#BB672E"/>
<path d="M27.3502 33.7753C26.7386 34.9372 26.0747 36.136 26.0471 37.4454C28.1124 36.4095 29.8796 34.8327 31.3118 33.0191C32.744 31.2055 34.7417 28.9555 35.6791 26.8438C36.6718 24.606 37.0437 22.3836 37.3265 19.9522C37.6092 17.5208 36.887 15.0618 35.8082 12.8671C36.1155 15.1632 35.4947 17.567 34.1178 19.4297C34.1086 19.1315 34.0932 18.8211 33.9365 18.5659C33.7828 18.3108 33.4355 18.1479 33.1774 18.2955C32.9684 18.4153 32.8946 18.6766 32.8424 18.9133C31.6652 24.0773 29.8151 29.0877 27.3502 33.7753Z" fill="#7F3A13"/>
</svg>
