<svg width="42" height="56" viewBox="0 0 42 56" fill="none" xmlns="http://www.w3.org/2000/svg">
<path d="M22.1906 56C33.131 56 42 43.9241 42 29.0277C42 14.1312 33.131 2.0553 22.1906 2.0553C11.2502 2.0553 2.38126 14.1312 2.38126 29.0277C2.38126 43.9241 11.2502 56 22.1906 56Z" fill="#34292A"/>
<path d="M20.1495 54.8696C31.2778 54.8696 40.2991 42.5866 40.2991 27.4348C40.2991 12.283 31.2778 0 20.1495 0C9.02126 0 0 12.283 0 27.4348C0 42.5866 9.02126 54.8696 20.1495 54.8696Z" fill="white"/>
<path d="M19.9971 54.5884C30.9376 54.5884 39.8065 42.5125 39.8065 27.6161C39.8065 12.7196 30.9376 0.643677 19.9971 0.643677C9.05673 0.643677 0.187775 12.7196 0.187775 27.6161C0.187775 42.5125 9.05673 54.5884 19.9971 54.5884Z" fill="#F7F1ED"/>
<path d="M11.3321 51.9165C12.0288 46.4214 13.7569 40.9832 15.8415 35.8072C20.1849 25.2119 25.9135 15.7848 32.2599 6.47668C28.8854 2.84485 24.6236 0.676025 19.9862 0.676025C9.04606 0.676025 0.17688 12.7506 0.17688 27.6484C0.17688 38.3195 4.72985 47.541 11.3321 51.9165Z" fill="#DCD8D5"/>
<path d="M20.3401 47.9062C28.7163 47.9062 35.5066 38.6609 35.5066 27.2564C35.5066 15.8518 28.7163 6.60657 20.3401 6.60657C11.9638 6.60657 5.17346 15.8518 5.17346 27.2564C5.17346 38.6609 11.9638 47.9062 20.3401 47.9062Z" fill="white"/>
<path d="M26.9123 13.1724C26.5422 12.2638 26.5749 11.2497 26.613 10.2681C26.6511 9.28911 26.681 8.2723 26.3054 7.36637C25.9299 6.46044 25.0318 5.68973 24.0494 5.78438C23.2084 5.86551 22.49 6.63893 22.4791 7.47995C22.4655 8.32098 23.0642 9.14308 22.8193 9.94625C22.6369 10.5493 22.0491 10.9171 21.532 11.2795C20.7945 11.796 20.1033 12.4234 19.7196 13.2346C19.3386 14.0459 19.3195 15.0708 19.8556 15.7929C20.3047 16.3959 21.1048 16.7691 21.2953 17.4966C21.5157 18.3376 20.7972 19.1137 20.5931 19.9602C20.3455 20.9932 21.0014 22.1641 22.0192 22.4941C22.5145 22.6563 23.1105 22.613 23.4915 22.2588C23.9024 21.8748 23.9541 21.2528 24.0058 20.693C24.1854 18.7189 24.7569 16.6474 26.2592 15.3467C26.6592 15.0005 27.1545 14.649 27.1899 14.1216C27.2117 13.789 27.0375 13.4807 26.9123 13.1724Z" fill="#34292A"/>
<path d="M13.3133 9.29177C13.9828 8.82122 14.9271 8.50212 15.5911 8.98078C16.1463 9.38101 16.2416 10.1571 16.2416 10.8386C16.2416 11.5201 16.2143 12.2665 16.6362 12.8046C16.99 13.2562 17.6077 13.4753 17.888 13.9756C18.4432 14.9626 17.3356 16.2147 17.703 17.2856C17.9887 18.1185 19.0446 18.4728 19.3957 19.2786C19.7223 20.0304 19.3331 20.8823 18.9793 21.6232C18.6255 22.3642 18.3099 23.2728 18.7534 23.9651C18.9195 24.222 19.1753 24.4167 19.3195 24.6899C19.6053 25.2307 19.3576 25.9041 19.0065 26.4071C18.6555 26.9101 18.1983 27.359 18.0105 27.9431C16.7396 26.9074 15.9449 25.32 15.8769 23.6893C15.8415 22.8239 15.9993 21.9423 15.8116 21.0959C15.6129 20.1927 15.0414 19.4247 14.6468 18.5863C13.433 15.9957 13.9746 12.8911 12.9785 10.2112L13.3133 9.29177Z" fill="#34292A"/>
<path d="M8.42014 18.965C7.53022 19.1137 6.59949 19.2787 5.89736 19.8412C5.19523 20.4037 4.83328 21.4935 5.3694 22.2155C5.58167 22.5022 5.91369 22.705 6.05248 23.0322C6.19127 23.3621 6.10147 23.7515 5.91097 24.0517C5.71774 24.3519 5.43471 24.5845 5.15985 24.8116C4.49582 25.3579 3.82634 25.9258 3.36914 26.6532C2.91194 27.3807 2.68878 28.3001 2.9827 29.106C3.18953 29.6712 3.6304 30.1444 3.75831 30.7313C3.98146 31.7427 3.23035 32.6865 2.92282 33.6762C2.55271 34.8661 2.87112 36.2399 3.72565 37.1485C4.48221 37.9544 5.57079 38.3708 6.37633 39.128C7.21726 39.915 7.68807 41.0075 8.3521 41.9459C9.01613 42.8843 10.0448 43.7361 11.1933 43.6171C10.7687 42.6625 11.0627 41.5483 11.4464 40.5775C11.8301 39.604 12.3064 38.6142 12.2302 37.5704C12.1458 36.4183 11.4001 35.434 10.9892 34.3523C10.1129 32.0293 10.8395 29.4197 11.8219 27.14C12.1648 26.3449 12.5458 25.4742 12.2982 24.644C11.9526 23.4784 10.483 22.8402 10.3251 21.6341C10.2544 21.0987 10.4694 20.5659 10.4857 20.0251C10.502 19.4842 10.1809 18.8406 9.63662 18.8487L8.42014 18.965Z" fill="#34292A"/>
<path d="M28.635 13.1428C28.2812 12.8615 28.3248 13.4673 27.8948 13.6133C27.4648 13.7593 27.1028 14.046 26.7518 14.3326C26.349 14.6626 25.9462 15.0087 25.685 15.4576C25.4237 15.9065 25.3257 16.4798 25.5571 16.945C26.017 17.8644 27.492 17.9564 27.854 18.9191C28.0853 19.5302 27.7424 20.1982 27.3668 20.7336C26.994 21.2691 26.5585 21.837 26.5858 22.4887C26.6239 23.3297 27.4349 23.9436 28.2458 24.1843C29.0568 24.4277 29.9304 24.4277 30.7305 24.7116C31.5279 24.9956 32.2845 25.7095 32.1919 26.5478C32.1321 27.0941 31.732 27.5322 31.4082 27.9784C31.0843 28.4246 30.8122 29.0033 31.0326 29.5063C31.1741 29.8281 31.4844 30.039 31.713 30.3067C32.2681 30.9612 32.2899 31.9077 32.1702 32.7568C32.0504 33.6033 31.8191 34.4605 31.966 35.3042C32.1157 36.148 32.8124 36.9836 33.6697 36.9214C34.3772 36.87 34.9215 36.2237 35.0903 35.5395C35.259 34.8553 35.1365 34.136 35.0168 33.441C34.8998 32.746 34.7909 32.024 34.9868 31.3452C35.1665 30.7232 35.5856 30.204 35.9176 29.6469C36.2523 29.0925 36.5109 28.4273 36.3258 27.8053C36.1843 27.3348 35.8087 26.9616 35.6536 26.4937C35.3787 25.6689 35.8387 24.8063 36.2142 24.022C36.5871 23.2378 36.8592 22.2291 36.2931 21.5666C35.8876 21.0879 35.1066 20.8851 34.9814 20.2712C34.9079 19.9115 35.1039 19.5573 35.2563 19.2219C36.0727 17.4209 35.5883 15.1223 34.1133 13.7972C32.6382 12.4721 30.2869 12.2233 28.567 13.2104L28.635 13.1428Z" fill="#34292A"/>
<path d="M30.2216 13.2562C30.2706 13.3698 30.3903 13.4428 30.5128 13.4726C30.6352 13.5023 30.7632 13.4969 30.8883 13.4969C32.0694 13.4996 33.2016 14.0973 33.9881 14.9707C34.7746 15.8442 35.2372 16.9719 35.4549 18.1239C35.4821 18.1537 35.5366 18.1347 35.5583 18.1023C35.5801 18.0671 35.5774 18.0266 35.5747 17.986C35.4957 16.6258 34.9868 15.2574 34.0044 14.3055C33.0247 13.3536 31.5415 12.8749 30.2216 13.2562Z" fill="#68574F"/>
<path d="M35.4631 24.5492C35.21 24.9062 34.9923 25.2929 34.878 25.7175C34.7637 26.1394 34.761 26.5991 34.9243 27.0047C35.0467 27.3049 35.2536 27.5645 35.425 27.8403C35.5992 28.1162 35.7434 28.4299 35.7162 28.7517C35.7108 28.8247 35.7026 28.9139 35.7625 28.9545C35.8087 28.9869 35.8768 28.968 35.9176 28.9275C35.9584 28.8869 35.9747 28.8301 35.9856 28.7733C36.0754 28.346 35.8849 27.9106 35.6672 27.532C35.4522 27.1507 35.1991 26.7694 35.1529 26.3368C35.0875 25.731 35.4277 25.1631 35.7706 24.6601C36.1135 24.1571 36.6442 23.6055 36.5 23.0159C36.4428 22.7888 36.2741 22.3182 36.0074 21.8774C35.9883 21.845 35.9475 21.826 35.9094 21.8287C35.8441 21.8315 35.8114 21.9207 35.8359 21.9829C35.8604 22.0451 35.9203 22.0829 35.9693 22.1262C36.3204 22.4237 36.353 22.9672 36.1924 23.3945C36.04 23.8218 35.7298 24.1761 35.4631 24.5492Z" fill="#68574F"/>
<path d="M4.29443 33.4923C4.34886 33.33 4.40601 33.1651 4.3924 32.9947C4.37879 32.8243 4.27266 32.6513 4.10665 32.608C3.94608 32.5674 3.78008 32.6621 3.6821 32.7946C3.58685 32.9271 3.54875 33.0921 3.51065 33.2489C3.32015 34.0845 3.12693 34.9445 3.27117 35.7882C3.4154 36.6319 3.98146 37.4649 4.82239 37.6542C4.79245 37.2025 4.40056 36.8726 4.16924 36.4832C3.90254 36.0397 3.84267 35.4989 3.89982 34.985C3.95697 34.4739 4.1257 33.9791 4.29443 33.4923Z" fill="#68574F"/>
<path d="M6.06338 37.7705C5.97901 37.7191 5.88648 37.6839 5.79396 37.6542C5.73953 37.6353 5.67693 37.619 5.6225 37.6434C5.51092 37.6948 5.53814 37.8624 5.59801 37.9706C5.66605 38.0977 5.75858 38.2221 5.89465 38.2735C6.03072 38.3249 6.21306 38.2762 6.25932 38.1383C6.31103 37.9976 6.19401 37.8489 6.06338 37.7705Z" fill="#68574F"/>
<path d="M4.81152 34.7337C5.23606 35.8316 7.12202 35.5828 7.67719 36.6213C7.95206 37.1351 7.80238 37.8247 8.17794 38.2709C8.49363 38.6468 9.0488 38.6873 9.54138 38.7035C10.7307 38.7387 11.9172 38.7712 13.1065 38.8063C13.7514 38.8252 14.5325 38.7685 14.8346 38.2033C15.0523 37.7949 14.9053 37.2838 14.6631 36.8917C14.4182 36.4969 14.0835 36.1615 13.8821 35.7451C13.3296 34.6066 13.9365 33.2193 14.8128 32.3052C15.2156 31.8861 15.6782 31.5183 16.0402 31.0613C16.4021 30.607 16.6634 30.0283 16.579 29.4549C16.413 28.3408 15.0387 27.6485 15.0088 26.5235C14.9843 25.6663 15.749 25.0227 16.4239 24.4872C17.0988 23.9518 17.8173 23.2216 17.6622 22.3779C17.4934 21.4584 16.3831 21.0095 16.0021 20.155C15.7082 19.4924 15.9068 18.7136 16.2388 18.07C16.5709 17.4264 17.0308 16.8476 17.2893 16.1716C17.5479 15.4955 17.5669 14.6572 17.0743 14.1244C16.4484 13.4484 15.3517 13.5728 14.459 13.8189C13.5664 14.065 12.5622 14.3651 11.7621 13.9027C11.0899 13.5133 10.8041 12.7155 10.4585 12.0205C10.1129 11.3255 9.51145 10.6062 8.73311 10.6657C8.98893 11.5148 9.16582 12.6128 8.4392 13.1266C7.82415 13.562 6.75463 13.3808 6.46071 14.0731C6.1042 14.9087 7.46492 15.7659 7.11386 16.6043C6.7764 17.4155 5.24695 17.1613 4.99385 18.0024C4.8469 18.4837 5.26328 18.9435 5.64972 19.268C6.03616 19.5925 6.47704 20.0062 6.3954 20.5038C6.25932 21.3259 4.83873 21.5179 4.84689 22.3535C4.85234 22.9404 5.61706 23.3108 5.61434 23.8977C5.6089 24.7549 4.11483 24.8604 3.91616 25.696C3.70117 26.5965 5.17347 27.1347 5.16803 28.0595C5.16258 28.8194 4.14476 29.3549 4.29444 30.1013C4.40602 30.6611 5.11088 30.8936 5.38574 31.3966C5.93547 32.4215 4.38697 33.6385 4.81152 34.7337Z" fill="#E3E870"/>
<path d="M18.5793 29.5767C18.4378 28.3111 18.5439 27.0103 18.1956 25.7853C17.7846 24.3493 16.7777 23.1324 16.4212 21.6829C16.032 20.0955 16.4647 18.4432 16.6852 16.8261C16.7668 16.2284 16.8158 15.6119 16.6661 15.025C16.5164 14.4409 16.13 13.8838 15.5639 13.6675C14.8809 13.4079 14.1216 13.6783 13.4222 13.8919C12.72 14.1056 11.8818 14.2327 11.3239 13.7594C11.1688 13.6296 11.0491 13.4593 10.8831 13.3457C10.7171 13.2294 10.4748 13.1807 10.317 13.3078C10.0285 13.5431 10.3143 13.9839 10.4041 14.3436C10.4939 14.7005 10.3551 15.0467 10.1401 15.3577C10.1292 15.3036 10.1047 15.2549 10.0612 15.2143C9.9986 15.1575 9.91151 15.1386 9.83259 15.1143C9.5033 15.0169 9.20938 14.8087 9.00799 14.5329C9.06242 14.7384 9.07875 14.9547 9.05698 15.1657C9.10869 15.1657 9.16312 15.1657 9.21482 15.1657C9.19849 15.3522 9.18216 15.5388 9.16311 15.7281C9.30191 15.647 9.49513 15.6741 9.60671 15.7903C9.63392 15.8201 9.6557 15.8525 9.67202 15.8904C9.27742 16.2771 8.84743 16.6963 8.81205 17.2398C8.77939 17.7185 9.07331 18.1836 9.00799 18.6596C8.96717 18.9624 8.79028 19.2112 8.59161 19.4519C8.58073 19.4438 8.56712 19.433 8.55623 19.4249C8.33035 19.2761 8.10175 19.1274 7.87587 18.9787C7.76157 18.903 7.64999 18.8299 7.53569 18.7542C7.29076 18.592 7.04583 18.4324 6.79818 18.2702C6.86622 18.5568 7.00229 18.8272 7.19279 19.0517C7.25811 19.1274 7.33431 19.2058 7.35064 19.3059C7.37513 19.4384 7.29621 19.6088 7.40234 19.6953C7.47854 19.7575 7.59284 19.7223 7.68537 19.7548C7.79151 19.7927 7.84594 19.9171 7.83505 20.0306C7.82689 20.1415 7.76974 20.2443 7.71531 20.3416C7.80512 20.3281 7.89492 20.3606 7.96568 20.4173C7.8541 20.8365 7.97112 21.2881 7.90581 21.7208C7.79967 22.4266 7.23089 22.9567 6.8771 23.5786C6.6349 24.0059 6.4961 24.4737 6.41174 24.9551C6.3056 25.112 6.19947 25.2688 6.09333 25.4256C6.06612 25.4635 6.03618 25.5068 5.98992 25.5149C5.94637 25.523 5.90555 25.5014 5.86473 25.4878C5.696 25.4338 5.49461 25.569 5.48373 25.7448C5.51094 25.6555 5.39936 25.5798 5.30683 25.5933C5.2143 25.6068 5.14083 25.6744 5.06463 25.7258C4.98843 25.7772 4.88773 25.8178 4.80337 25.7745C4.75166 25.7475 4.719 25.6907 4.67002 25.6609C4.6047 25.6231 4.51489 25.6366 4.46591 25.6934C4.41692 25.7502 4.41692 25.8421 4.46591 25.8989C4.66457 25.8259 4.91495 25.9313 4.99659 26.1261C5.02653 26.1964 5.04013 26.2775 5.10545 26.3181C5.17076 26.3586 5.25785 26.3343 5.33405 26.3343C5.57081 26.3343 5.73682 26.556 5.87289 26.748C5.9627 26.8778 6.07972 27.0104 6.21579 27.0753C6.18586 27.5647 6.15592 28.0542 6.13143 28.5464C6.08789 28.4139 6.05251 28.2759 6.05251 28.1083C6.06339 28.2678 6.07428 28.4301 6.03346 28.5869C5.98992 28.7411 5.88378 28.8871 5.72866 28.9331C5.63613 28.9601 5.51638 28.9601 5.47556 29.0467C5.44563 29.1116 5.48101 29.1846 5.48101 29.2549C5.47828 29.4171 5.30411 29.5145 5.15171 29.5713C4.99931 29.6281 4.82242 29.7146 4.80337 29.8742C4.87685 29.766 5.04558 29.8174 5.15443 29.8904C5.26329 29.9634 5.40208 30.0527 5.51094 29.9823C5.59258 29.931 5.60891 29.8201 5.67423 29.7498C5.7722 29.6443 5.94365 29.6632 6.08244 29.6254C6.03346 30.7666 6.00352 31.9105 5.98992 33.0517C5.90827 33.1599 5.81302 33.2599 5.70416 33.3356C5.65246 33.3708 5.59531 33.4059 5.56537 33.4627C5.53271 33.5276 5.54088 33.6034 5.55176 33.6764C5.56265 33.7467 5.57353 33.8251 5.53816 33.89C5.50278 33.9549 5.40481 33.9874 5.35582 33.9333C5.36671 34.0631 5.22519 34.1821 5.09456 34.1523C5.0864 34.3714 5.07823 34.5877 5.07007 34.8068C5.18165 34.677 5.29323 34.5471 5.40481 34.4173C5.60075 34.512 5.82391 34.4038 6.00897 34.2821C6.03618 34.4687 6.08517 34.6472 6.17225 34.8149C6.54781 35.5126 7.45133 35.6992 8.24055 35.8073C10.2735 36.0886 12.3064 36.3698 14.3393 36.6484C15.4796 36.8052 16.7314 36.9404 17.703 36.3266C18.7263 35.6775 19.1236 34.3633 19.0991 33.1572C19.0719 31.9483 18.7126 30.7747 18.5793 29.5767Z" fill="#7A932C"/>
<path d="M7.58469 16.2013C7.69355 16.3798 7.74798 16.6124 7.65273 16.7963C7.99291 16.1743 7.90582 15.3441 7.44318 14.8059C7.21186 14.5355 6.888 14.3219 6.76554 13.9893C6.64035 14.5896 6.80092 15.2413 7.18736 15.7173C7.31799 15.8795 7.47584 16.0229 7.58469 16.2013Z" fill="#7A932C"/>
<path d="M5.88649 19.1544C6.24027 19.4492 6.51786 19.8332 6.68659 20.2604C6.71653 19.8278 6.55052 19.3978 6.28926 19.0516C6.03072 18.7028 5.68238 18.4296 5.32043 18.189C5.24151 18.3756 5.31226 18.5946 5.43473 18.7542C5.55991 18.9083 5.73137 19.0246 5.88649 19.1544Z" fill="#7A932C"/>
<path d="M24.0004 14.2272C23.437 13.6674 22.8737 13.1103 22.3104 12.5505C22.1525 12.3937 21.9756 12.2287 21.7525 12.2152C21.2681 12.1854 21.0748 12.8669 21.2408 13.3185C21.4068 13.7701 21.7634 14.1704 21.7634 14.6517C21.7634 15.2331 21.2408 15.6848 20.6965 15.9011C20.155 16.1147 19.5563 16.1796 19.0337 16.4365C18.5112 16.6934 18.054 17.2478 18.1928 17.813C18.3561 18.4756 19.2542 18.8704 19.178 19.5464C19.1263 20.0197 18.6228 20.2847 18.2391 20.5687C17.2485 21.3069 16.8212 22.6618 17.0607 23.8679C17.3002 25.074 18.1438 26.1178 19.2052 26.7533C20.0543 27.2617 21.1238 27.6241 21.4994 28.5354C21.9947 29.7361 20.9496 31.1532 21.4123 32.3674C21.9511 33.779 24.1228 33.9629 24.7134 35.3529C24.9883 36.0019 24.8767 36.843 25.4019 37.3162C25.9653 37.8246 26.8579 37.5542 27.56 37.2594C28.7302 36.7645 29.9685 36.2156 30.6543 35.1501C30.9918 34.6227 31.1768 33.9927 31.6041 33.5356C32.1157 32.9867 32.8832 32.773 33.52 32.3728C34.1568 31.9753 34.6984 31.1775 34.3555 30.5123C34.2439 30.2959 34.0425 30.0931 34.0806 29.8524C34.1105 29.6523 34.2956 29.5144 34.3636 29.3251C34.5541 28.7978 33.8003 28.3948 33.6996 27.8431C33.5907 27.2482 34.2602 26.7912 34.3718 26.1962C34.4806 25.6256 34.0643 25.1091 33.7676 24.6088C32.9702 23.2648 32.9757 21.4908 33.7785 20.1522C34.0806 19.6492 34.4861 19.2057 34.7365 18.673C34.9868 18.1402 35.0521 17.4615 34.682 17.0044C34.3854 16.6367 33.8955 16.4987 33.4601 16.3094C33.0247 16.1201 32.5756 15.7794 32.5702 15.3062C32.5675 14.9438 32.8342 14.5787 32.7008 14.2407C32.5185 13.7809 31.8327 13.8567 31.3918 14.0892C30.9509 14.3218 30.423 14.6274 29.9984 14.3651C29.4541 14.0297 29.5576 12.994 28.9316 12.8669C28.5261 12.7858 28.2077 13.186 27.9084 13.47C27.1736 14.1704 25.9516 14.3002 25.0835 13.7728L24.0004 14.2272Z" fill="#E3E870"/>
<path d="M33.9908 17.4453C33.8656 17.429 33.7513 17.5102 33.6533 17.5832C32.8178 18.2106 31.9824 18.8353 31.1469 19.4626C30.8883 19.0949 30.853 18.5892 31.0407 18.1808C31.068 18.1322 31.0979 18.0835 31.1278 18.0348C31.2639 17.8239 31.4326 17.6346 31.5986 17.448C31.9143 17.0937 32.2355 16.7395 32.6246 16.4663C32.5294 16.3609 32.347 16.4014 32.2327 16.488C32.1184 16.5745 32.0286 16.6989 31.898 16.7557C31.7538 16.8206 31.5578 16.8071 31.4734 16.9396C31.4136 17.0342 31.4435 17.1694 31.3782 17.2614C31.3319 17.3317 31.2448 17.3614 31.1686 17.3966C30.989 17.4804 30.8366 17.6183 30.7305 17.7833C30.7196 17.7617 30.7114 17.74 30.706 17.7184C30.6516 17.5291 30.7142 17.329 30.7768 17.1451C31.0353 16.3581 31.2966 15.5712 31.5551 14.7843C30.9101 15.0926 30.0801 14.9627 29.563 14.4706C29.827 15.0709 29.7399 15.8119 29.3426 16.3365C29.3698 15.8335 29.3943 15.3116 29.2092 14.8411C29.0242 14.3705 28.5642 13.9703 28.058 14.0163C27.5056 14.0676 27.1164 14.6058 26.5776 14.7383C26.1258 14.8492 25.655 14.6545 25.2522 14.4219C24.8495 14.1893 24.4549 13.9108 23.9949 13.8351C23.535 13.7566 22.9826 13.9649 22.8628 14.4111C23.1758 14.9682 23.037 15.6929 22.6288 16.177C22.6097 16.1012 22.5689 16.0309 22.5253 15.9633C22.3866 15.7443 22.245 15.5252 22.1062 15.3035C21.9756 15.4793 22.2342 15.7659 22.0899 15.9309C22.03 16.0012 21.9076 16.0255 21.8885 16.1175C21.8722 16.2013 21.9566 16.2635 22.0246 16.3149C22.0926 16.3663 22.158 16.4609 22.1035 16.5258C22.0545 16.5583 22.0056 16.5934 21.9538 16.6259C21.9348 16.6313 21.9185 16.6394 21.9021 16.6448C21.5456 16.7395 21.1646 16.707 20.8054 16.7962C20.4462 16.8828 20.0815 17.1559 20.0869 17.5237C20.0924 17.8536 20.3836 18.097 20.5931 18.3539C20.6666 18.4458 20.7292 18.5459 20.7836 18.6487C20.5958 18.5432 20.4081 18.435 20.2203 18.3296C20.1196 18.2728 20.0189 18.216 19.9209 18.1538C19.5726 17.9374 19.2515 17.6724 18.8705 17.5156C19.2569 17.932 19.6433 18.3485 20.0298 18.7649C20.0924 18.8326 20.1577 18.9029 20.2366 18.9488C20.3183 18.9975 20.4135 19.0219 20.5006 19.0597C20.7619 19.1733 20.9469 19.4275 20.9932 19.706L20.9796 19.203C21.0204 19.4086 21.0286 19.6168 21.0041 19.8223C21.0041 19.7845 20.9986 19.7439 20.9932 19.706L20.9986 19.8791C20.9823 19.9981 20.9578 20.1144 20.917 20.228C20.6067 21.1096 19.6678 21.791 19.7359 22.7213C19.7604 23.0404 19.9046 23.3379 19.959 23.6516C20.125 24.6116 19.4447 25.4905 19.1535 26.4207C18.7153 27.8107 19.2242 29.4468 20.3781 30.3473C21.0041 30.8341 21.7661 31.1045 22.4818 31.448C23.1975 31.7914 23.9078 32.2511 24.2589 32.9597C24.5447 33.5384 24.5909 34.2685 25.0835 34.685C25.6142 35.1339 26.4116 35.0095 27.0838 34.8337C29.0187 34.3226 30.8883 33.5735 32.6355 32.6027C33.2152 32.2809 33.8656 31.7617 33.7377 31.1153C33.6887 30.872 33.5336 30.6637 33.4683 30.4258C33.403 30.1878 33.4764 29.8687 33.7186 29.8092C33.1417 29.5496 33.0111 28.7707 33.158 28.1596C33.3077 27.5457 33.6479 26.9832 33.7159 26.3558C33.8139 25.4634 33.3512 24.617 32.9049 23.8382C32.7063 24.1329 32.4722 24.4493 32.1239 24.5142C31.7755 24.5791 31.3755 24.1681 31.5905 23.8868C31.6803 23.7706 31.8327 23.7246 31.9497 23.638C32.3035 23.3757 32.2436 22.8836 32.2028 22.4211C32.4368 21.9398 32.6736 21.4584 32.9076 20.977C32.6518 21.142 32.4178 21.3448 32.2354 21.5882C32.5103 20.3415 33.784 19.3653 34.1922 18.0943C34.2793 17.8482 34.252 17.4777 33.9908 17.4453Z" fill="#7A932C"/>
<path d="M8.06362 4.66492C8.60791 5.28149 9.48149 5.46268 10.2217 5.83046C11.3049 6.36591 12.1431 7.36378 12.4832 8.5185C12.3907 7.85866 12.7527 7.20423 13.248 6.75532C13.7433 6.30641 14.3583 6.01435 14.9461 5.69254C15.534 5.37074 16.1191 4.99484 16.481 4.43506C16.911 5.78178 16.7069 7.3151 15.9395 8.50498C15.417 9.31356 14.6686 9.94906 14.0018 10.6441C13.335 11.3391 12.7227 12.153 12.5839 13.1049C11.9743 12.4018 11.3674 11.696 10.7578 10.9929C9.97679 10.0897 9.18757 9.17564 8.64056 8.11827C8.09355 7.0582 7.79692 5.82776 8.06362 4.66492Z" fill="#7F3A13"/>
<path d="M11.479 10.5872C11.6205 10.1762 11.9417 9.82192 12.3526 9.67859C12.7635 9.53526 13.2588 9.6245 13.5664 9.93549C14.5325 9.52715 15.3544 8.79429 15.8714 7.88566C16.3858 6.97702 16.5899 5.89802 16.4402 4.86499C16.1272 5.3139 15.6401 5.61137 15.1475 5.85475C14.6549 6.09814 14.1379 6.30637 13.7024 6.63899C12.984 7.18525 12.5322 8.06414 12.5077 8.96196C12.1784 8.05873 11.6641 7.14739 10.9075 6.54975C10.1537 5.95211 9.24744 5.5654 8.33304 5.25981C8.82018 7.28261 9.88426 9.23509 11.479 10.5872Z" fill="#BB672E"/>
<path d="M9.08689 5.97382C9.02702 5.85753 8.96714 5.73855 8.89367 5.62767C8.84196 5.54925 8.74399 5.46812 8.66779 5.5168C9.14948 6.68774 9.78085 7.7992 10.5401 8.8133C10.0557 7.86951 9.5713 6.92031 9.08689 5.97382Z" fill="#EAC17F"/>
<path d="M9.54681 5.94947C9.71282 6.54441 9.97408 7.1096 10.3197 7.62341C10.1619 7.10689 9.96592 6.59849 9.73731 6.10631C9.70194 6.02519 9.63662 5.93054 9.54681 5.94947Z" fill="#EAC17F"/>
<path d="M14.4263 9.10803C15.6455 8.25619 16.3776 6.76073 16.3041 5.28149C16.1027 5.40859 16.0891 5.68713 16.0728 5.92511C16.0293 6.53087 15.8224 7.1204 15.5231 7.65043C15.2264 8.18317 14.84 8.66183 14.4263 9.10803Z" fill="#EAC17F"/>
<path d="M14.3746 8.4103C14.9978 7.75587 15.3788 6.87428 15.4251 5.97375C15.3761 5.97375 15.3271 5.97375 15.2782 5.97375C15.1475 6.83371 14.8373 7.66933 14.3746 8.4103Z" fill="#EAC17F"/>
<path d="M13.9555 8.54287C14.5787 7.88844 14.9597 7.00684 15.006 6.10632C14.957 6.10632 14.908 6.10632 14.8591 6.10632C14.7257 6.96899 14.4182 7.8019 13.9555 8.54287Z" fill="#EAC17F"/>
<path d="M13.4929 8.75112C14.1161 8.09669 14.4971 7.2151 14.5434 6.31458C14.4944 6.31458 14.4454 6.31458 14.3964 6.31458C14.2631 7.17724 13.9528 8.01015 13.4929 8.75112Z" fill="#EAC17F"/>
<path d="M13.0411 8.11562C13.2779 7.8506 13.384 7.47741 13.3269 7.12585C13.3024 7.12585 13.2806 7.12585 13.2561 7.12585C13.1418 7.44766 13.0684 7.78029 13.0411 8.11562Z" fill="#EAC17F"/>
<path d="M12.4996 48.75C12.9976 49.5071 13.6017 50.3103 14.4917 50.4996C15.2128 50.6511 15.9721 50.3428 16.5219 49.856C17.0716 49.3665 17.4444 48.7175 17.7819 48.0658C21.0204 41.8324 21.8232 34.4606 20.4162 27.5863C19.7168 24.1736 18.5031 20.8906 17.292 17.6238C16.5273 15.5605 15.7653 13.4998 15.0006 11.4365C14.8019 10.8983 14.5951 10.3493 14.2222 9.91395C13.8494 9.47856 13.267 9.17298 12.7009 9.28385C12.1403 9.39473 11.7212 9.8869 11.5226 10.4169C11.3239 10.9497 11.2994 11.5284 11.245 12.0936C10.8259 16.3177 8.48544 20.0955 7.33155 24.1844C6.15861 28.3381 6.24025 32.7894 7.23902 36.9864C8.23507 41.1807 10.1292 45.1371 12.4996 48.75Z" fill="#7F3A13"/>
<path d="M18.7616 21.7073C18.2962 20.3389 17.7955 18.9787 17.292 17.6238C16.5273 15.5605 15.7653 13.4998 15.0006 11.4365C14.8019 10.8983 14.5951 10.3493 14.2222 9.91395C13.8494 9.47856 13.267 9.17298 12.7009 9.28385C12.1403 9.39473 11.7212 9.8869 11.5226 10.4169C11.3239 10.9497 11.2994 11.5284 11.245 12.0936C10.8259 16.3177 8.48544 20.0955 7.33155 24.1844C6.15861 28.3381 6.24025 32.7894 7.23902 36.9864C8.23779 41.1834 10.1319 45.1371 12.5023 48.7527C13.0003 49.5099 13.6045 50.313 14.4944 50.5023C15.2156 50.6538 15.9748 50.3455 16.5246 49.8587C17.0743 49.3692 17.4471 48.7202 17.7846 48.0685C19.0473 45.64 19.9345 43.0385 20.4679 40.3613C17.7683 34.6364 17.4744 27.9785 18.7616 21.7073Z" fill="#7F3A13"/>
<path d="M9.887 37.8707C10.9484 37.9761 11.7512 36.9783 12.7146 36.5185C13.6317 36.0804 14.723 36.1481 15.6891 36.4536C16.6579 36.7592 17.537 37.2865 18.4323 37.7652C18.7997 37.9626 19.1862 38.1546 19.6025 38.1898C20.0189 38.2222 20.4788 38.0573 20.6748 37.6895C20.819 37.4164 20.7973 37.0864 20.77 36.7781C20.2911 31.3967 19.7958 25.9448 17.9506 20.8608C16.9274 18.043 15.4986 15.3684 14.7121 12.4749C14.5488 11.8745 14.4046 11.2471 14.0073 10.7658C13.6099 10.2871 12.8724 10.0167 12.3472 10.3547C11.7076 10.7658 11.7893 11.6906 11.8002 12.4478C11.8328 14.5166 10.8041 16.4312 9.96864 18.3269C7.63364 23.6381 6.70835 29.647 7.93028 35.3124C8.05002 35.8749 8.19698 36.4428 8.5045 36.9296C8.81203 37.4136 9.31005 37.8112 9.887 37.8707Z" fill="#BB672E"/>
<path d="M8.85011 29.2467C8.8991 28.7302 8.47455 28.2488 8.55347 27.7377C8.62423 27.2807 9.08143 26.9291 9.07871 26.4667C9.07599 26.0476 8.68954 25.7041 8.67594 25.285C8.66505 24.8847 8.99707 24.5521 9.06782 24.1573C9.11137 23.9139 9.05422 23.6624 9.04605 23.4163C9.03789 23.1297 9.09504 22.8484 9.15219 22.5672C9.37263 21.4963 9.59306 20.4254 9.8135 19.3545C8.02823 25.0605 7.29617 31.2073 8.63784 37.0323C8.88277 36.962 8.88549 36.605 8.74942 36.3914C8.61334 36.1777 8.39563 36.0074 8.3412 35.7586C8.26772 35.4287 8.51809 35.115 8.56164 34.7796C8.62695 34.2631 8.19696 33.7764 8.27044 33.2598C8.32215 32.8948 8.61607 32.5946 8.65417 32.2295C8.71132 31.6968 8.21329 31.2262 8.24323 30.6908C8.27316 30.1635 8.7984 29.7713 8.85011 29.2467Z" fill="#EAC17F"/>
<path d="M11.3212 20.0793C12.5513 19.4249 13.8712 18.9003 15.1856 18.5109C15.5095 18.4162 15.8442 18.3216 16.1844 18.235C16.1436 17.87 16.1109 17.5022 16.0075 17.1506C15.8633 16.6611 15.5802 16.2231 15.3407 15.7714C14.889 14.9277 14.5706 14.0137 14.3964 13.0753C14.3256 12.6886 14.2767 12.291 14.1025 11.9368C13.931 11.5825 13.6017 11.2742 13.2071 11.2526C12.5513 11.2147 12.1104 11.9584 12.1022 12.6102C12.0968 13.2619 12.3553 13.8947 12.3608 14.5464C12.3689 16.05 11.0381 17.3264 11.0762 18.83C11.0844 19.2572 11.2069 19.6683 11.3212 20.0793Z" fill="#7F3A13"/>
<path d="M10.6299 26.0071C13.0602 24.9038 15.7462 24.4684 18.4405 24.4305C18.1112 23.4678 17.771 22.5078 17.3546 21.5775C16.9573 20.6878 16.4919 19.8116 16.2851 18.8624C15.8687 18.9706 15.4659 19.0923 15.0795 19.2194C13.8494 19.6223 12.6275 20.1145 11.4817 20.7338C11.4953 20.8041 11.5062 20.8717 11.5171 20.942C11.7321 22.6538 10.5347 24.2953 10.6299 26.0071Z" fill="#7F3A13"/>
<path d="M11.2232 30.8072C13.6779 30.0662 16.2334 29.6985 18.8079 29.639C18.9657 29.6363 19.1263 29.6308 19.2868 29.6281C19.0882 28.8196 19.2378 27.9677 19.1671 27.1375C19.1072 26.4263 18.8868 25.7421 18.6582 25.066C15.9204 25.0877 13.1854 25.5231 10.7306 26.6751C10.9592 27.6081 11.4709 28.4869 11.4872 29.4497C11.4926 29.9148 11.381 30.3664 11.2232 30.8072Z" fill="#7F3A13"/>
<path d="M19.627 33.4222C19.6188 32.7488 19.8964 32.0809 19.8338 31.4075C19.7957 31.0073 19.6406 30.6314 19.4964 30.2528C19.0038 30.2636 18.5112 30.2853 18.0268 30.3123C15.5911 30.4475 13.2071 30.8369 10.9021 31.5833C10.8993 31.5914 10.8939 31.5995 10.8912 31.6076C10.5809 32.2945 10.2435 32.9868 10.1673 33.7359C10.1482 33.936 10.151 34.1415 10.1782 34.3444C13.3133 33.3898 16.4974 33.0085 19.627 33.4222Z" fill="#7F3A13"/>
<path d="M19.7331 34.0847C16.6253 33.6412 13.4629 34.0198 10.3469 34.969C10.4802 35.2773 10.6789 35.5477 10.9619 35.737C11.6069 36.1643 12.4533 36.0589 13.2207 35.9561C14.8237 35.7452 16.6225 35.683 17.8771 36.6971C18.4459 37.1568 19.0065 37.8599 19.725 37.7139C20.2366 37.6084 20.5632 37.0648 20.5822 36.5456C20.6013 36.0264 20.3836 35.5288 20.1577 35.061C19.9998 34.7419 19.8366 34.4201 19.7331 34.0847Z" fill="#7F3A13"/>
<path d="M19.4556 29.5714C16.7124 29.8634 13.9882 30.3096 11.2967 30.91C13.6181 29.2577 16.7232 28.7493 19.4556 29.5714Z" fill="#34292A"/>
<path d="M14.0127 24.4927C14.4427 24.2737 14.7284 23.8167 15.1802 23.649C15.4986 23.53 15.8578 23.576 16.1871 23.6598C16.5164 23.7464 16.8375 23.8735 17.1777 23.9167C17.4172 23.9492 17.6649 23.9384 17.9016 23.9952C18.1384 24.0519 18.3724 24.1926 18.4486 24.4224C15.7272 24.5603 13.0275 25.0823 10.453 25.9666C11.0953 25.3662 11.8736 24.8713 12.7445 24.7361C13.1718 24.6712 13.6262 24.6874 14.0127 24.4927Z" fill="#34292A"/>
<path d="M10.8123 20.5066C11.3402 19.6548 12.2818 19.068 13.2861 18.9679C13.4711 18.949 13.6643 18.9436 13.8303 18.8624C14.0317 18.7624 14.1596 18.5677 14.3256 18.4162C14.5842 18.181 14.9352 18.062 15.2836 18.0241C15.6319 17.9835 15.9857 18.0187 16.3368 18.0512C14.6549 19.5006 12.0723 19.5115 10.3605 20.9258L10.8123 20.5066Z" fill="#34292A"/>
<path d="M15.5693 32.4135C16.0592 32.2621 16.4946 31.8267 17.0008 31.8673C17.3464 31.8943 17.6458 32.1431 17.9805 32.2486C18.2853 32.3459 18.6092 32.3189 18.9249 32.354C19.2406 32.3892 19.6706 33.1275 19.8502 33.4276C16.4674 33.5574 13.003 33.5493 9.7509 34.6256C9.69103 34.3417 9.91147 34.0713 10.151 33.9793C10.3904 33.8874 10.6517 33.9117 10.9021 33.8657C11.8246 33.7008 12.4669 32.6353 13.3813 32.419C14.0998 32.2486 14.8618 32.6353 15.5693 32.4135Z" fill="#34292A"/>
<path d="M20.4679 40.3586C21.3061 36.1643 21.2762 31.7834 20.4162 27.5864C20.008 25.5906 19.4202 23.6381 18.7616 21.7073C17.4743 27.9785 17.7683 34.6364 20.4679 40.3586Z" fill="#34292A"/>
<path d="M13.316 39.3824C15.4741 38.9578 17.82 39.6231 19.4284 41.1159C18.7589 40.1829 17.7873 39.4608 16.6824 39.1309C15.5802 38.801 14.3502 38.8767 13.316 39.3824Z" fill="#BB672E"/>
<path d="M17.2675 46.9246C17.3519 46.9219 17.4172 47.0085 17.4254 47.0923C17.4335 47.1761 17.4036 47.2572 17.3791 47.3384C17.2757 47.698 17.3301 48.0793 17.3274 48.4525C17.3247 48.8257 17.2485 49.2341 16.9573 49.472C16.7505 49.6424 16.462 49.6992 16.2742 49.8912C16.1708 49.9967 16.1055 50.1373 16.0021 50.2401C15.8959 50.3428 15.719 50.405 15.602 50.3131C16.0565 49.8777 16.1817 49.2151 16.3096 48.6013C16.4375 47.9874 16.6307 47.3249 17.1532 46.9733C17.1886 46.9463 17.2267 46.9246 17.2675 46.9246Z" fill="#34292A"/>
<path d="M12.75 46.0349C12.6057 45.4427 11.9036 45.0803 11.841 44.4746C11.8002 44.0825 12.0451 43.6903 11.958 43.3063C11.9172 43.1224 11.8029 42.9629 11.7376 42.7871C11.5988 42.4139 11.6804 42.0002 11.7621 41.6108C11.8791 41.0564 11.9988 40.502 12.1159 39.9476C11.4926 40.237 10.8994 40.621 10.4803 41.1646C10.0639 41.7081 9.84073 42.4274 10.004 43.09C10.151 43.6849 10.5782 44.1636 10.9239 44.672C11.9743 46.2161 12.3608 48.1848 13.6589 49.5289C14.0753 49.9615 14.6958 50.3293 15.2537 50.1076C14.8727 49.9642 14.4808 49.8155 14.1923 49.5289C13.9038 49.2422 13.7514 48.7825 13.9447 48.4255C13.2915 48.3228 12.7554 47.7197 12.7309 47.0653C12.7173 46.7191 12.8316 46.3703 12.75 46.0349Z" fill="#BB672E"/>
<path d="M17.9425 38.0113C17.1424 37.3136 15.9939 37.0297 14.9598 37.2731C13.4086 37.6409 12.3499 39.0173 11.3484 40.2505C12.4016 39.0741 14.0209 38.4197 15.602 38.5306C17.1832 38.6441 18.6909 39.5176 19.5672 40.8319C19.1834 39.807 18.7725 38.7334 17.9425 38.0113Z" fill="#34292A"/>
<path d="M14.7175 43.1467C14.7175 43.7795 14.2005 44.2933 13.5637 44.2933C12.9268 44.2933 12.4098 43.7795 12.4098 43.1467C12.4098 42.5139 12.9268 42.0001 13.5637 42.0001C14.2005 42.0001 14.7175 42.5139 14.7175 43.1467Z" fill="#34292A"/>
<path d="M14.3583 43.1467C14.3583 43.5821 14.0018 43.9363 13.5636 43.9363C13.1255 43.9363 12.769 43.5821 12.769 43.1467C12.769 42.7113 13.1255 42.3571 13.5636 42.3571C14.0018 42.3571 14.3583 42.7113 14.3583 43.1467Z" fill="#827486"/>
<path d="M13.384 43.5038C13.6426 43.5038 13.8521 43.2955 13.8521 43.0386C13.8521 42.7817 13.6426 42.5735 13.384 42.5735C13.1255 42.5735 12.916 42.7817 12.916 43.0386C12.916 43.2955 13.1255 43.5038 13.384 43.5038Z" fill="#34292A"/>
<path d="M13.3541 42.7546C13.3595 42.9276 13.55 43.071 13.7188 43.025C13.8875 42.979 13.9827 42.76 13.8984 42.6085C13.8358 42.495 13.6943 42.4355 13.5691 42.4679C13.4439 42.5004 13.3514 42.6275 13.3541 42.7546Z" fill="white"/>
<path d="M25.7911 13.1265C25.3421 12.9372 25.04 12.5126 24.8359 12.0745C24.629 11.6364 24.4957 11.1659 24.2508 10.7467C23.5704 9.57308 22.1797 9.00788 21.2653 8.0046C20.2094 6.84717 19.8692 5.20027 19.8883 3.63721C20.4761 4.12398 21.1946 4.41874 21.9049 4.69458C22.6152 4.97041 23.3418 5.23813 23.9623 5.68163C24.5828 6.12513 25.0917 6.77957 25.1788 7.53135C25.3094 6.67951 25.7857 5.9115 26.3844 5.28952C26.9804 4.66753 27.6988 4.17265 28.4091 3.68048C28.6976 5.00286 28.9833 6.40367 28.5588 7.69091C28.235 8.67256 27.5355 9.47572 26.9232 10.3086C26.3082 11.1388 25.7503 12.0962 25.7911 13.1265Z" fill="#7F3A13"/>
<path d="M20.2394 4.22678C20.4789 4.99209 20.5823 5.66545 21.0014 6.34693C21.445 7.06626 22.0709 7.6585 22.7594 8.15608C23.4452 8.65096 24.1936 9.0566 24.942 9.45684C25.0726 9.17559 25.3802 8.98629 25.6931 8.9917C26.0061 8.99981 26.3027 9.20264 26.4225 9.48929C27.3423 9.01334 27.922 8.04521 28.1696 7.04463C28.4146 6.04405 28.371 4.9975 28.3275 3.96717C26.8361 4.78927 25.7258 6.2658 25.3584 7.92081C24.7978 6.50918 23.5377 5.52753 22.1199 4.96775C21.4096 4.68921 20.7211 4.3674 20.1087 3.91309L20.2394 4.22678Z" fill="#BB672E"/>
<path d="M20.9333 4.96227C20.8626 4.80813 20.7836 4.63776 20.6258 4.57556C21.0912 6.309 22.4165 7.80987 24.112 8.42103C22.7213 7.6422 21.5892 6.41176 20.9333 4.96227Z" fill="#EAC17F"/>
<path d="M23.8616 7.06357C23.5187 6.61195 23.2384 6.11166 23.0316 5.58704C22.9526 5.61408 22.8792 5.66546 22.8302 5.73307C23.0669 6.24688 23.4234 6.7066 23.8616 7.06357Z" fill="#EAC17F"/>
<path d="M26.1748 8.32643C26.7137 7.31233 27.0457 6.21169 27.16 5.06238C26.9722 5.24086 26.7953 5.43286 26.6293 5.63298C26.5885 6.54702 26.4524 7.45836 26.1748 8.32643Z" fill="#EAC17F"/>
<path d="M25.9217 8.32099C26.1721 7.5611 26.3136 6.76874 26.3708 5.96558C26.2891 6.07916 26.2156 6.19814 26.1422 6.31713C26.1884 6.96616 26.0905 7.66386 25.9217 8.32099Z" fill="#EAC17F"/>
<path d="M25.655 8.41024C25.8074 7.86128 25.9081 7.27986 25.9136 6.72278C25.7176 7.10138 25.5543 7.4962 25.4455 7.90725C25.4183 8.01271 25.391 8.12629 25.4346 8.22906C25.47 8.3183 25.557 8.37509 25.655 8.41024Z" fill="#EAC17F"/>
<path d="M27.4212 4.82438C27.3314 6.08187 26.9967 7.29338 26.4143 8.40213C26.4225 8.39942 26.4279 8.39942 26.4361 8.39672C26.6837 8.0695 26.8906 7.72606 27.0402 7.40966C27.424 6.59027 27.8458 5.468 27.8676 4.48364C27.7124 4.58911 27.5655 4.70269 27.4212 4.82438Z" fill="#EAC17F"/>
<path d="M28.2186 4.25378C28.1778 4.27812 28.137 4.30517 28.0961 4.3295C28.0907 4.81086 27.9764 5.30034 27.8621 5.75736C27.6961 6.4199 27.4947 7.10138 27.1572 7.70173C27.0566 7.8775 26.945 8.06139 26.8225 8.24528C27.0647 8.12089 27.2824 7.94782 27.4621 7.745C27.8621 7.28257 28.0717 6.68222 28.1615 6.07917C28.2485 5.47611 28.2268 4.86224 28.2186 4.25378Z" fill="#EAC17F"/>
<path d="M25.1026 47.2544C25.5843 47.9899 26.1721 48.7715 27.0375 48.9526C27.7369 49.0987 28.4744 48.8012 29.0078 48.328C29.5412 47.8547 29.9032 47.2219 30.2325 46.5918C33.3785 40.5397 34.1568 33.3788 32.7906 26.7046C32.113 23.3919 30.9319 20.2008 29.7562 17.0287C29.0133 15.0249 28.273 13.021 27.5301 11.0199C27.3369 10.4979 27.1355 9.96519 26.7735 9.54062C26.4116 9.11875 25.8455 8.82129 25.2958 8.92946C24.7515 9.03492 24.3433 9.51358 24.1501 10.0301C23.9568 10.5466 23.9351 11.1091 23.8806 11.6581C23.4724 15.7604 21.2 19.4301 20.0788 23.4C18.9412 27.4321 19.0174 31.7562 19.989 35.8315C20.9632 39.9042 22.8002 43.7442 25.1026 47.2544Z" fill="#7F3A13"/>
<path d="M22.5635 36.6888C23.5949 36.7915 24.3759 35.8207 25.3094 35.3745C26.1993 34.9499 27.2579 35.0148 28.1996 35.3123C29.1412 35.6098 29.9957 36.1209 30.8638 36.586C31.2204 36.778 31.5959 36.9646 32.0014 36.9971C32.4069 37.0295 32.8532 36.8673 33.0437 36.5103C33.1852 36.2453 33.1607 35.9235 33.1362 35.626C32.6709 30.3986 32.1892 25.1037 30.3985 20.1684C29.4052 17.4317 28.0172 14.8329 27.2525 12.0258C27.0947 11.4444 26.9531 10.8333 26.5667 10.3681C26.183 9.90299 25.4645 9.64068 24.9556 9.96789C24.3351 10.3654 24.414 11.2659 24.4249 11.9988C24.4576 14.0081 23.4561 15.8659 22.6478 17.7075C20.3809 22.8646 19.4828 28.7004 20.6693 34.2036C20.7864 34.7498 20.9279 35.3015 21.2272 35.7747C21.5211 36.2453 22.0056 36.632 22.5635 36.6888Z" fill="#BB672E"/>
<path d="M21.5565 29.8334C21.5239 29.4819 21.3306 29.1709 21.2136 28.8383C20.9524 28.1027 21.0639 27.2941 21.181 26.5207C21.2844 25.8284 21.3878 25.1361 21.4912 24.4438C21.5511 24.0463 21.6109 23.6488 21.6708 23.2513C21.8151 22.2858 21.9593 21.3204 22.1035 20.355C20.3564 25.3254 20.2829 30.8611 21.8913 35.8775C21.747 35.3069 21.6055 34.7065 21.7443 34.1359C21.8014 33.9034 21.9021 33.6789 21.9076 33.4409C21.9212 32.8298 21.3116 32.3673 21.2136 31.7616C21.1102 31.1099 21.6191 30.4879 21.5565 29.8334Z" fill="#EAC17F"/>
<path d="M23.9595 19.4113C25.1542 18.7758 26.436 18.2646 27.7124 17.886C28.0254 17.7941 28.3519 17.7022 28.6812 17.6183C28.6404 17.2641 28.6105 16.9071 28.5098 16.5664C28.3683 16.0904 28.0961 15.6658 27.8621 15.2278C27.4239 14.4084 27.1137 13.5214 26.945 12.6073C26.8769 12.2314 26.8279 11.8447 26.6592 11.5013C26.4905 11.1578 26.1721 10.8577 25.7883 10.836C25.1515 10.7982 24.7215 11.5229 24.7161 12.1557C24.7107 12.7885 24.961 13.4024 24.9665 14.0352C24.9746 15.4955 23.6819 16.7367 23.7173 18.197C23.7282 18.6108 23.8452 19.011 23.9595 19.4113Z" fill="#7F3A13"/>
<path d="M23.2873 25.1686C25.6495 24.0978 28.2567 23.6759 30.872 23.638C30.5509 22.7024 30.2216 21.7694 29.8188 20.8662C29.4323 20.0008 28.9806 19.1489 28.7819 18.2295C28.3791 18.335 27.9845 18.4539 27.609 18.5756C26.4143 18.9678 25.2277 19.4464 24.1147 20.0441C24.1283 20.1117 24.1391 20.1793 24.1473 20.2469C24.3569 21.91 23.1948 23.5055 23.2873 25.1686Z" fill="#7F3A13"/>
<path d="M23.8616 29.8282C26.2456 29.1088 28.7275 28.7519 31.2258 28.6924C31.3809 28.6897 31.536 28.6842 31.6912 28.6815C31.4979 27.8946 31.6422 27.0698 31.5741 26.2639C31.5143 25.5743 31.302 24.9091 31.0788 24.252C28.42 24.2709 25.7639 24.6955 23.3799 25.815C23.6003 26.721 24.0983 27.5755 24.1147 28.5085C24.1228 28.9628 24.0167 29.4009 23.8616 29.8282Z" fill="#7F3A13"/>
<path d="M32.0232 32.3674C32.015 31.7129 32.2844 31.0639 32.2246 30.4095C32.1892 30.0201 32.0368 29.655 31.8953 29.2899C31.4163 29.3007 30.94 29.3224 30.4692 29.3494C28.1016 29.4792 25.7883 29.8605 23.5513 30.5826C23.5486 30.5907 23.5432 30.5988 23.5404 30.6069C23.2384 31.2721 22.9118 31.9482 22.8383 32.673C22.8193 32.8677 22.822 33.0678 22.8492 33.2625C25.8918 32.3376 28.9833 31.9671 32.0232 32.3674Z" fill="#7F3A13"/>
<path d="M32.1266 33.0111C29.1085 32.5811 26.036 32.9489 23.0098 33.871C23.1377 34.1712 23.3309 34.4335 23.6058 34.6147C24.2317 35.0284 25.0536 34.9257 25.7992 34.8283C27.3559 34.6228 29.1031 34.5633 30.3196 35.5477C30.872 35.9939 31.4163 36.678 32.113 36.5347C32.611 36.432 32.9267 35.9046 32.9457 35.3989C32.9648 34.8932 32.7525 34.4119 32.5321 33.9575C32.3879 33.6493 32.23 33.3383 32.1266 33.0111Z" fill="#7F3A13"/>
<path d="M31.8572 28.6274C29.1929 28.9114 26.5476 29.3467 23.9323 29.9282C26.1884 28.3245 29.2038 27.8296 31.8572 28.6274Z" fill="#34292A"/>
<path d="M26.5721 23.6975C26.9912 23.4839 27.2661 23.0404 27.707 22.8781C28.0172 22.7618 28.3656 22.8051 28.684 22.8889C29.0051 22.9727 29.3153 23.0971 29.6446 23.1404C29.8787 23.1702 30.1182 23.162 30.3468 23.2161C30.5754 23.2702 30.804 23.4081 30.8802 23.6299C28.2377 23.7624 25.6169 24.2708 23.1159 25.1308C23.7391 24.5466 24.4957 24.068 25.342 23.9355C25.7557 23.8706 26.1966 23.8868 26.5721 23.6975Z" fill="#34292A"/>
<path d="M23.4642 19.825C23.9786 18.9975 24.893 18.4269 25.8673 18.3295C26.0469 18.3106 26.2347 18.3079 26.3952 18.2268C26.5885 18.1294 26.7164 17.9401 26.8769 17.7941C27.13 17.5642 27.4702 17.4507 27.8077 17.4128C28.1478 17.3749 28.4907 17.4074 28.8309 17.4398C27.1981 18.8488 24.6916 18.8569 23.0288 20.2306L23.4642 19.825Z" fill="#34292A"/>
<path d="M28.0825 31.3885C28.5588 31.2397 28.9806 30.8179 29.4705 30.8584C29.8052 30.8855 30.0991 31.1262 30.423 31.2289C30.7196 31.3236 31.0353 31.2965 31.3401 31.3317C31.6476 31.3668 32.064 32.0835 32.2382 32.3755C28.9534 32.5026 25.5897 32.4945 22.4301 33.5384C22.3729 33.2625 22.5852 33.0002 22.8193 32.911C23.0533 32.8217 23.3064 32.8461 23.5486 32.8028C24.4467 32.6433 25.0672 31.6075 25.9571 31.3966C26.6565 31.2289 27.3967 31.6048 28.0825 31.3885Z" fill="#34292A"/>
<path d="M31.8599 40.1313C30.0147 38.5223 27.2824 37.9922 24.961 38.7873C26.0251 37.9706 27.4294 37.5866 28.7547 37.8192C30.0773 38.0544 31.2857 38.9252 31.8599 40.1313Z" fill="#BB672E"/>
<path d="M29.416 48.155C29.3072 48.2631 29.1439 48.2956 29.0078 48.3686C28.8091 48.4768 28.6758 48.6661 28.5016 48.8094C28.3275 48.9527 28.0689 49.042 27.8811 48.9149C28.2023 48.6796 28.3846 48.3037 28.5016 47.9251C28.6186 47.5465 28.6785 47.1517 28.8228 46.7812C28.9643 46.4107 29.2038 46.0564 29.5657 45.8915C29.4841 46.3999 29.4732 46.9218 29.533 47.4329C29.5657 47.6844 29.5984 47.9765 29.416 48.155Z" fill="#34292A"/>
<path d="M22.8546 39.4039C22.4628 39.3038 22.0491 39.6121 21.9348 39.9988C21.8205 40.3856 21.9457 40.8047 22.1498 41.1536C22.3566 41.4997 22.6397 41.7945 22.8791 42.1163C23.6602 43.1628 23.9704 44.469 24.4494 45.6805C24.9284 46.892 25.6931 48.1198 26.9286 48.5497C26.4769 48.2658 26.1939 47.7358 26.2075 47.2057C26.2129 47.0435 26.2401 46.8758 26.183 46.7244C26.0932 46.4864 25.8292 46.3728 25.6387 46.2051C25.1298 45.7562 25.1788 44.9531 25.3937 44.3122C25.4999 43.9958 25.6305 43.6199 25.4346 43.3494C25.3502 43.2331 25.2196 43.1601 25.108 43.0682C24.6454 42.6788 24.61 42 24.5174 41.4024C24.3841 40.5397 24.0575 39.7095 23.5677 38.9847L22.8546 39.4039Z" fill="#BB672E"/>
<path d="M30.3903 36.824C29.6147 36.1453 28.4989 35.8694 27.492 36.1074C25.9843 36.4644 24.9583 37.8003 23.984 39.001C25.0073 37.8571 26.5803 37.2216 28.1152 37.3324C29.6501 37.4406 31.1169 38.2925 31.966 39.5689C31.5959 38.5683 31.1931 37.5272 30.3903 36.824Z" fill="#34292A"/>
<path d="M27.2579 41.8107C27.2579 42.4273 26.7572 42.9248 26.1367 42.9248C25.5162 42.9248 25.0155 42.4273 25.0155 41.8107C25.0155 41.1941 25.5162 40.6965 26.1367 40.6965C26.7545 40.6965 27.2579 41.1968 27.2579 41.8107Z" fill="#34292A"/>
<path d="M26.9069 41.8107C26.9069 42.2326 26.5613 42.576 26.1367 42.576C25.7122 42.576 25.3665 42.2326 25.3665 41.8107C25.3665 41.3889 25.7122 41.0454 26.1367 41.0454C26.5613 41.0454 26.9069 41.3889 26.9069 41.8107Z" fill="#827486"/>
<path d="M25.9598 42.1596C26.2108 42.1596 26.4143 41.9574 26.4143 41.708C26.4143 41.4585 26.2108 41.2563 25.9598 41.2563C25.7088 41.2563 25.5053 41.4585 25.5053 41.708C25.5053 41.9574 25.7088 42.1596 25.9598 42.1596Z" fill="#34292A"/>
<path d="M25.9326 41.432C25.938 41.5997 26.1231 41.7403 26.2864 41.6944C26.4497 41.6511 26.5422 41.4374 26.4605 41.2887C26.4007 41.1805 26.2619 41.121 26.1394 41.1535C26.0197 41.1859 25.9299 41.3076 25.9326 41.432Z" fill="white"/>
</svg>
