<svg width="28" height="31" viewBox="0 0 28 31" fill="none" xmlns="http://www.w3.org/2000/svg">
<path d="M4.21612 30.0004C2.30187 30.0004 0.75 28.4079 0.75 26.4417V12.1384C0.75 11.0578 1.22938 10.0341 2.05 9.3597L11.5839 1.53045C12.193 1.02602 12.9591 0.75 13.75 0.75C14.5409 0.75 15.307 1.02602 15.9161 1.53045L25.4484 9.3597C26.2706 10.0341 26.75 11.0578 26.75 12.1384V26.4417C26.75 28.4079 25.1981 30.0004 23.2839 30.0004H4.21612Z" stroke="currentColor" stroke-width="1.5" stroke-linecap="round" stroke-linejoin="round"/>
<path d="M9.6875 30.0005V21.063C9.6875 20.201 10.0299 19.3744 10.6394 18.7649C11.2489 18.1554 12.0755 17.813 12.9375 17.813H14.5625C15.4245 17.813 16.2511 18.1554 16.8606 18.7649C17.4701 19.3744 17.8125 20.201 17.8125 21.063V30.0005" stroke="currentColor" stroke-width="1.5" stroke-linecap="round" stroke-linejoin="round"/>
</svg>
