<svg width="62" height="46" viewBox="0 0 62 46" fill="none" xmlns="http://www.w3.org/2000/svg">
<path d="M31.9345 45.9967C48.5392 45.9967 62 36.2002 62 24.1154C62 12.0307 48.5392 2.23413 31.9345 2.23413C15.3298 2.23413 1.86901 12.0307 1.86901 24.1154C1.86901 36.2002 15.3298 45.9967 31.9345 45.9967Z" fill="#34292A"/>
<path d="M30.3786 43.7626C46.9833 43.7626 60.4441 33.966 60.4441 21.8813C60.4441 9.7966 46.9833 0 30.3786 0C13.7739 0 0.313114 9.7966 0.313114 21.8813C0.313114 33.966 13.7739 43.7626 30.3786 43.7626Z" fill="white"/>
<path d="M30.0655 44.3067C46.6702 44.3067 60.131 34.5101 60.131 22.4254C60.131 10.3407 46.6702 0.544067 30.0655 0.544067C13.4608 0.544067 0 10.3407 0 22.4254C0 34.5101 13.4608 44.3067 30.0655 44.3067Z" fill="#F7F1ED"/>
<path d="M57.1516 31.9962C51.0281 31.2268 44.9659 29.3177 39.1942 27.016C27.383 22.2161 16.8759 15.8902 6.50117 8.87866C2.45327 12.6066 0.0355072 17.3163 0.0355072 22.435C0.0355072 34.5201 13.4962 44.3163 30.101 44.3163C41.9961 44.3195 52.2773 39.291 57.1516 31.9962Z" fill="#DCD8D5"/>
<path d="M29.8105 42.681C45.2475 42.681 57.7617 33.5733 57.7617 22.3385C57.7617 11.1036 45.2475 1.99597 29.8105 1.99597C14.3735 1.99597 1.85932 11.1036 1.85932 22.3385C1.85932 33.5733 14.3735 42.681 29.8105 42.681Z" fill="#A68F89"/>
<path d="M29.8105 42.681C44.9676 42.681 57.2548 33.7377 57.2548 22.7055C57.2548 11.6733 44.9676 2.72998 29.8105 2.72998C14.6534 2.72998 2.36612 11.6733 2.36612 22.7055C2.36612 33.7377 14.6534 42.681 29.8105 42.681Z" fill="#34292A"/>
<path d="M30.0655 41.8794C44.8286 41.8794 56.7965 33.1696 56.7965 22.4254C56.7965 11.6813 44.8286 2.97144 30.0655 2.97144C15.3024 2.97144 3.33451 11.6813 3.33451 22.4254C3.33451 33.1696 15.3024 41.8794 30.0655 41.8794Z" fill="#B7310D"/>
<path d="M33.4291 25.4805L32.5349 24.9847C32.7867 25.223 33.0837 25.4032 33.4291 25.4805Z" fill="#F95317"/>
<path d="M42.8677 10.1954C43.184 9.53542 43.7586 9.00424 44.472 8.89156C44.5979 8.87225 44.727 8.86903 44.8529 8.87225C44.8109 8.75636 44.7593 8.64368 44.6818 8.55032C44.146 7.92579 43.2099 8.65978 42.5707 9.17808C42.5546 9.19096 42.5352 9.20383 42.5191 9.21671C42.6579 9.53542 42.7838 9.86056 42.8677 10.1954Z" fill="#F95317"/>
<path d="M37.109 40.6528C36.4246 40.5015 35.7597 40.0991 35.4627 39.4649C35.3336 39.1913 35.2819 38.8919 35.2335 38.5957C35.1399 38.0195 35.0656 37.4271 35.1625 36.8509C35.2658 36.236 35.5531 35.6726 35.8371 35.1189C36.1922 34.4236 36.557 33.7218 37.0767 33.1391C38.0128 32.0896 39.3589 31.5359 40.7243 31.1303C40.4435 30.847 40.2659 30.4478 40.0819 30.084C39.63 29.1826 39.0232 28.3649 38.4776 27.515C37.9321 26.6652 37.435 25.7605 37.2381 24.769C37.0412 23.7775 37.1832 22.6829 37.8062 21.8878C38.2388 21.3373 38.9328 20.9767 39.6236 20.9478C40.0045 20.7385 40.3983 20.5453 40.8147 20.4198C41.4635 20.2266 42.1898 20.2009 42.7999 20.4938C44.2235 21.1763 44.443 23.1787 45.6696 24.1702C45.8826 24.3441 46.1247 24.4825 46.3475 24.6435C46.4249 23.8322 46.5637 23.0242 46.6089 22.2097C46.7155 20.1977 46.2022 18.1534 45.1402 16.4376C44.6044 15.5716 43.9394 14.7925 43.4132 13.9233C43.1001 13.405 42.8419 12.8352 42.7031 12.2461C42.3738 13.0026 41.7896 13.6787 41.1988 14.2807C40.6888 14.8022 40.1465 15.314 39.4848 15.6295C38.823 15.945 38.0193 16.0352 37.3672 15.7036C36.5279 15.2786 36.1535 14.3096 35.7758 13.4469C35.3981 12.5873 34.9527 11.7568 34.4426 10.968C34.1198 10.4691 33.7712 9.98295 33.5453 9.43246C33.3193 8.88197 33.2289 8.25099 33.4452 7.69728C33.6389 7.19829 34.0553 6.82164 34.4717 6.48362C35.1044 5.96854 35.7758 5.50174 36.4795 5.08002C36.3213 4.89009 36.1438 4.71946 35.9307 4.58104C34.3426 3.55409 32.2476 4.82892 30.3592 4.63576C28.9357 4.4909 27.68 3.49937 26.25 3.46395C24.3584 3.41566 22.767 5.02851 20.8786 5.12509C19.9264 5.17338 18.887 4.84823 18.0703 5.34078C17.6474 5.5951 17.373 6.0297 17.0309 6.38704C15.136 8.36689 11.6369 7.66509 9.47738 9.35198C8.41214 10.1825 7.83756 11.4767 7.29848 12.7129C6.22356 15.1917 5.14864 17.6705 4.14151 20.1783C3.63149 21.45 3.13115 22.7699 3.1828 24.138C3.23122 25.3292 3.69605 26.4623 4.24158 27.5247C5.52955 30.0325 7.29203 32.2924 9.40959 34.1564C10.152 34.8099 10.959 35.4248 11.9016 35.7338C13.0249 36.1008 14.2935 36.0107 15.3265 36.5773C17.1374 37.5688 17.8637 40.3406 19.9232 40.4951C20.9335 40.5691 21.9277 39.9253 22.9155 40.141C23.9517 40.3663 24.7199 41.4898 25.7755 41.4061C26.5567 41.345 27.2023 40.6174 27.9834 40.6818C28.529 40.7269 28.9744 41.155 29.5135 41.2452C29.9816 41.3257 30.4496 41.1389 30.908 41.0134C32.8287 40.4822 34.8784 40.9748 36.8636 40.8074C37.0928 40.788 37.3188 40.7559 37.5447 40.7204C37.4027 40.7076 37.2542 40.685 37.109 40.6528ZM25.6464 6.99226C26.576 6.6317 27.6316 6.74116 28.5871 7.03089C30.9758 7.75523 32.9868 9.6224 33.881 11.9467C34.165 12.6839 34.3426 13.4726 34.2748 14.2613C34.2102 15.0468 33.881 15.8291 33.2838 16.3474C32.735 16.8207 31.9958 17.0428 31.2695 17.0524C30.4658 17.0621 29.6523 16.8174 29.0132 16.3313C27.7381 15.3623 27.3217 13.64 26.2952 12.4167C25.8691 11.9113 25.3462 11.496 24.8975 11.0067C24.4488 10.5206 24.0647 9.92823 24.0227 9.26828C23.9581 8.27353 24.7167 7.35282 25.6464 6.99226ZM21.5404 32.9846C21.337 34.6908 19.6004 35.9398 17.8798 35.9817C16.1593 36.0235 14.5324 35.0867 13.3381 33.8505C12.1437 32.6143 11.3012 31.0884 10.4199 29.614C10.0003 28.9122 9.56131 28.1879 9.48061 27.3766C9.43219 26.8776 9.52257 26.3786 9.61295 25.8893C9.79372 24.9139 9.97126 23.9352 10.152 22.9598C12.3148 23.9545 14.4775 24.9493 16.6403 25.944C17.557 26.3658 18.4996 26.8036 19.2065 27.5215C19.8005 28.1235 20.1975 28.8897 20.5849 29.6398C21.124 30.686 21.6792 31.8128 21.5404 32.9846ZM21.6695 24.6048C21.3467 24.8849 20.9787 25.1103 20.601 25.3098C19.9974 25.6286 19.3453 25.8861 18.6642 25.9473C17.9831 26.0084 17.2633 25.8571 16.7307 25.4322C16.2206 25.0266 15.914 24.3988 15.8075 23.7582C15.6977 23.1143 15.772 22.4544 15.9172 21.8202C16.0011 21.4532 16.1077 21.0894 16.2852 20.7578C16.7791 19.8532 17.7572 19.322 18.7353 19.0001C19.7166 18.6782 20.7495 18.5204 21.6953 18.1084C22.2183 17.8798 22.7121 17.5772 23.2544 17.3969C23.7903 17.2198 24.3584 17.1683 24.9233 17.1619C25.3494 17.1555 25.7916 17.1748 26.1758 17.3647C26.6922 17.619 27.0376 18.1888 27.0215 18.7651C27.0021 19.4733 26.4953 20.0786 25.924 20.4971C25.3526 20.9156 24.6941 21.2149 24.1518 21.6689C23.1673 22.4962 22.6411 23.7646 21.6695 24.6048ZM34.7848 36.8702C34.4523 37.5495 34.1715 40.0573 33.4387 40.2504C27.7898 41.7538 28.6807 38.5861 27.6606 38.1193C26.4824 37.5784 25.1751 36.896 24.8168 35.6501C24.5908 34.8614 24.8168 33.9922 25.2622 33.3001C26.0176 32.125 27.425 31.42 28.8163 31.4425C28.1836 31.2784 27.5703 30.9339 27.3411 30.3383C27.2119 30.0035 27.2216 29.6237 27.0635 29.2985C26.7407 28.6353 25.8917 28.4615 25.2784 28.0527C24.6166 27.6116 24.2099 26.8551 24.055 26.0728C23.9 25.2938 23.9678 24.4857 24.0905 23.7002C24.2228 22.8471 24.4585 21.9393 25.1299 21.392C25.8497 20.8061 26.8633 20.7932 27.793 20.8158C28.5838 20.8351 29.4231 20.8673 30.0816 21.3019C30.8499 21.8073 31.2017 22.7312 31.5859 23.565C31.7505 23.9256 31.9539 24.2926 32.1992 24.6145C33.258 24.9815 34.094 25.9666 34.2909 27.0804C34.5233 28.3907 33.9229 29.7846 32.8803 30.6184C31.9668 31.3492 30.7595 31.6614 29.591 31.5681L28.5871 31.8224C29.4457 31.9286 30.3205 32.0381 31.1114 32.3922C31.9022 32.7463 34.349 33.5093 34.5653 34.3463C34.7977 35.2316 35.1883 36.0493 34.7848 36.8702Z" fill="#F95317"/>
<path d="M55.3665 18.617C54.7402 16.4729 54.0075 14.1712 52.1998 12.8577C51.2217 12.1462 50.0467 11.8179 48.8718 11.4799C49.7433 12.069 50.6827 12.5647 51.551 13.1603C52.7131 13.9587 53.7977 15.021 54.1237 16.3892C54.4239 17.648 54.0462 18.9518 53.8622 20.233C53.6556 21.6592 53.6879 23.111 53.4813 24.5372C53.2747 25.9633 52.7905 27.4152 51.7414 28.4067C50.6923 29.3983 48.9783 29.7846 47.7678 28.9958C46.9382 28.455 46.5056 27.4925 46.3539 26.4977C46.1473 26.5911 45.9214 26.6683 45.7212 26.7585C44.7335 27.2027 44.1621 28.2329 43.7425 29.2309C43.4907 29.8296 43.2615 30.4574 42.8128 30.9274C42.6837 31.0626 42.532 31.1785 42.3641 31.2751C42.6966 31.7902 42.7547 32.4308 42.7999 33.0425C42.8968 34.3237 42.9936 35.6082 43.0904 36.8895C43.1227 37.3176 43.1518 37.7555 43.0937 38.1772C43.0969 38.1772 43.0969 38.174 43.1001 38.174C43.8296 37.939 44.6173 37.9808 45.3694 37.8456C46.9253 37.5623 48.2391 36.545 49.356 35.4279C51.2121 33.5672 52.684 31.3684 54.1431 29.1826C54.8823 28.0751 55.6473 26.6812 55.0501 25.4901C54.85 25.0909 54.5111 24.7657 54.369 24.3408C53.9558 23.1175 55.3342 22.039 55.615 20.7771C55.7797 20.0592 55.5698 19.3188 55.3665 18.617Z" fill="#F95317"/>
<path d="M24.2971 20.6998C24.9394 20.1976 25.8917 20.0334 26.2629 19.3091C26.6761 18.4946 26.024 17.487 25.1912 17.1071C23.6967 16.4311 21.9439 17.1329 20.5784 18.0375C19.213 18.9453 17.925 20.0914 16.3143 20.4069C16.4692 21.5594 16.6241 22.7151 16.7791 23.8676C16.8275 24.2281 16.8856 24.6112 17.1342 24.8784C17.457 25.2293 17.996 25.2647 18.4706 25.2229C20.3073 25.0555 22.0407 24.006 23.0349 22.4575C23.4287 21.8491 23.7257 21.1505 24.2971 20.6998Z" fill="#ED9636"/>
<path d="M17.9444 24.3376C18.6158 24.5018 19.3389 24.666 19.9877 24.4213C20.1749 24.3505 20.3492 24.2475 20.5171 24.138C21.5501 23.4652 22.399 22.5187 22.9542 21.4177C22.002 21.9908 20.9109 22.3352 19.7973 22.406C19.539 22.4221 19.2679 22.4221 19.0322 22.3159C18.7966 22.2097 18.6029 21.965 18.632 21.7075C19.4809 21.5336 20.3428 21.437 21.2079 21.4113C21.0207 21.1924 20.9496 20.8769 21.0239 20.5968C20.2266 20.4423 19.4164 20.2845 18.6061 20.3328C17.925 20.3747 17.2601 20.555 16.608 20.7546C17.0244 21.7557 17.3246 22.802 17.5022 23.8708C17.5183 23.9738 17.5377 24.0865 17.6055 24.167C17.6862 24.2732 17.8217 24.3086 17.9444 24.3376Z" fill="#BB672E"/>
<path d="M22.8768 18.6717C22.8122 18.9872 23.1285 19.2609 23.4384 19.3446C23.9872 19.4959 24.5747 19.3092 25.0621 19.0162C25.3139 18.8649 25.5495 18.6814 25.7594 18.4754C25.7594 18.3048 25.6496 18.1502 25.5076 18.0601C25.3655 17.97 25.1945 17.9345 25.0234 17.9152C24.4423 17.8476 23.8419 17.9539 23.319 18.2178C23.1221 18.3144 22.922 18.4561 22.8768 18.6717Z" fill="#F9CAA0"/>
<path d="M23.0801 19.924C23.0898 19.8307 23.0091 19.7502 22.9219 19.7244C22.8316 19.6987 22.738 19.718 22.6476 19.7373C22.4571 19.7792 22.2602 19.8307 22.115 19.9562C21.9697 20.085 21.8922 20.3104 21.9891 20.4778C22.0794 20.6323 22.2893 20.6806 22.4603 20.6355C22.6314 20.5904 22.7735 20.4681 22.8994 20.3425C23.1511 20.0882 23.2577 20.2299 23.0801 19.924Z" fill="#F9CAA0"/>
<path d="M49.5529 21.0282C50.1436 21.1055 50.7117 20.7932 51.2121 20.4713C51.9932 19.9723 52.7389 19.4218 53.4491 18.8294C53.6653 18.6492 53.8848 18.4528 53.9849 18.192C54.1011 17.8926 54.0398 17.5578 53.9623 17.2456C53.6072 15.7808 52.9358 14.3965 52.0094 13.2054C51.2734 12.2622 50.3825 11.4412 49.7046 10.4561C49.2591 9.80908 48.9008 9.08152 48.3004 8.5761C47.6968 8.07068 46.7348 7.86786 46.1441 8.38295C46.3249 8.04814 45.8826 7.65539 45.5082 7.723C45.1338 7.7906 44.8691 8.11575 44.6399 8.42158C43.92 9.37448 43.1582 10.5012 43.4229 11.6666C43.5101 12.0529 43.707 12.4038 43.9039 12.7515C44.3655 13.5692 44.8271 14.3901 45.2887 15.2078C46.1215 16.6886 46.9576 18.1727 47.8775 19.6021C48.2843 20.2427 48.8007 20.9284 49.5529 21.0282Z" fill="#ED9636"/>
<path d="M53.3393 17.8798C53.2102 16.7595 52.8745 15.6649 52.358 14.6605C51.664 15.0951 51.3864 15.945 51.0603 16.6951C50.6439 17.6512 50.0726 18.5333 49.5884 19.4572C49.4496 19.718 49.3172 20.0013 49.3366 20.2974C49.356 20.5936 49.5916 20.893 49.8886 20.8801C50.0468 20.8737 50.1856 20.7836 50.3147 20.6966C51.1475 20.1461 51.9771 19.5989 52.8099 19.0484C52.9745 18.9389 53.1456 18.823 53.2457 18.6556C53.3845 18.4238 53.3684 18.1405 53.3393 17.8798Z" fill="#BB672E"/>
<path d="M49.385 12.6034C49.1623 12.0304 48.9363 11.4477 48.5748 10.9487C48.2133 10.4497 47.6935 10.0345 47.0867 9.92822C48.3521 12.5938 49.2494 15.4364 49.7401 18.3434C50.1145 18.0601 50.4277 17.6995 50.6536 17.2874C50.7666 17.0846 50.857 16.8593 50.857 16.6275C50.857 16.4022 50.7763 16.1865 50.6956 15.974C50.2598 14.8537 49.824 13.7302 49.385 12.6034Z" fill="#BB672E"/>
<path d="M50.1662 12.0433C50.531 13.067 50.9183 14.0875 51.325 15.0951C51.3799 15.2271 51.4542 15.3784 51.593 15.4106C51.7156 15.3623 51.7221 15.1949 51.7027 15.0662C51.58 14.271 51.2411 13.508 50.7311 12.8867C50.6407 12.774 50.305 12.0046 50.1662 12.0433Z" fill="#BB672E"/>
<path d="M45.4695 14.1196C46.1248 15.5908 46.9963 16.9654 48.0422 18.1855C48.2391 18.1598 48.2391 17.8733 48.1842 17.6833C47.5096 15.3751 46.8349 13.0701 46.1603 10.7619C46.1377 10.6879 46.1151 10.6106 46.0634 10.5495C45.9989 10.4754 45.902 10.4432 45.8149 10.4014C45.5437 10.279 45.3113 10.0762 45.1531 9.82834C45.0563 9.67381 44.9691 9.4871 44.798 9.41949C44.4978 9.3036 44.2202 9.63196 44.0911 9.92813C43.9426 10.2694 43.8426 10.6299 43.7877 10.9969C43.7651 11.1579 43.749 11.3253 43.8103 11.4766C43.8781 11.6472 44.033 11.7631 44.1654 11.8887C44.8045 12.481 45.1176 13.3277 45.4695 14.1196Z" fill="#F9CAA0"/>
<path d="M46.9156 9.64814C46.8543 9.48074 46.7477 9.28437 46.567 9.2908C46.3733 9.29724 46.2861 9.54191 46.2926 9.73506C46.3023 10.0634 46.4346 10.3854 46.6606 10.6268C46.8575 10.6171 47.006 10.4208 47.0286 10.2244C47.0544 10.028 46.9834 9.83486 46.9156 9.64814Z" fill="#F9CAA0"/>
<path d="M9.47092 21.0573C8.86729 21.4887 8.75431 22.3675 8.9609 23.079C9.16749 23.7904 9.62586 24.3989 9.9874 25.0427C10.817 26.5204 11.1656 28.2072 11.6595 29.8265C12.1566 31.4458 12.8635 33.0876 14.1935 34.1403C14.8391 34.649 15.6073 34.9967 16.4046 35.1866C16.8275 35.2864 17.2988 35.3379 17.6732 35.119C17.9605 34.9516 18.1445 34.6554 18.3156 34.3721C19.0322 33.181 19.7488 31.9899 20.4655 30.7987C18.9289 29.3436 17.3956 27.8853 15.8591 26.4302C15.3749 25.9699 14.8907 25.5127 14.442 25.0202C13.9029 24.4278 13.4123 23.7904 12.9797 23.1176C12.5666 22.4705 12.1953 21.7752 11.5949 21.2955C11.001 20.8126 10.0939 20.6098 9.47092 21.0573Z" fill="#ED9636"/>
<path d="M15.3685 31.4781C15.5202 31.697 15.6816 31.9255 15.9108 32.0607C16.1399 32.1992 16.4627 32.2217 16.6629 32.0414C16.9405 31.7936 16.834 31.3429 16.7113 30.9952C16.2658 29.7525 15.8204 28.5099 15.3717 27.2673C15.2813 27.0162 15.1909 26.7618 15.0489 26.5301C14.8713 26.2403 14.6228 26.0021 14.3871 25.7574C13.7932 25.1329 13.2735 24.4375 12.8474 23.6907C13.1799 24.6725 13.0637 25.7413 13.0153 26.7747C12.9701 27.8113 13.0185 28.9188 13.6157 29.7686C13.7222 29.6527 13.8287 29.5369 13.9352 29.421C14.4162 30.1067 14.8939 30.7924 15.3685 31.4781Z" fill="#BB672E"/>
<path d="M19.0129 32.2731C19.3357 32.1122 19.6488 31.8514 19.7101 31.4973C19.7747 31.111 19.5229 30.7504 19.2743 30.4478C18.4189 29.4144 17.4215 28.5001 16.3175 27.7372C16.65 29.2985 17.2923 30.7923 18.1994 32.1057C18.2575 32.1926 18.3221 32.2796 18.4124 32.3311C18.59 32.4373 18.8224 32.3697 19.0129 32.2731Z" fill="#BB672E"/>
<path d="M11.808 22.9953C11.7725 22.7892 11.737 22.5768 11.6337 22.3933C11.4949 22.1518 11.2463 21.9941 11.0107 21.846C10.775 21.7011 10.5297 21.5498 10.2553 21.5273C10.2004 21.5241 10.1423 21.5241 10.0907 21.5466C10.0261 21.5756 9.98417 21.64 9.95835 21.7043C9.83891 22.0102 10.052 22.3482 10.3037 22.5607C10.5555 22.7731 10.859 22.9438 11.0171 23.2303C11.1462 23.4653 11.1527 23.7453 11.1624 24.0158C11.214 25.4548 11.3819 26.8906 11.6595 28.3038C12.2083 27.573 12.3503 26.6041 12.2825 25.693C12.2179 24.782 11.9662 23.8967 11.808 22.9953Z" fill="#F9CAA0"/>
<path d="M14.1192 33.2036C14.2516 33.4611 14.4033 33.7219 14.6551 33.8667C14.9972 34.0631 15.4298 33.9891 15.8171 33.9054C16.098 33.8474 16.3756 33.7863 16.6564 33.7283C16.0076 32.6595 15.1038 31.7452 14.0385 31.0853C13.861 30.9758 13.6802 30.8728 13.4801 30.8149C13.422 30.7988 13.351 30.7891 13.3025 30.8278C13.2477 30.876 13.2606 30.963 13.2799 31.0338C13.4833 31.7839 13.7641 32.5114 14.1192 33.2036Z" fill="#F9CAA0"/>
<path d="M17.4667 9.2265C16.3143 9.01081 15.0683 9.38746 14.229 10.2019L13.1347 11.4059C12.7732 11.7697 12.4665 12.1947 12.2373 12.655C12.092 12.948 11.9726 13.2699 11.9984 13.595C12.0307 14.0103 12.2922 14.3709 12.5504 14.6992C13.3574 15.7197 14.258 16.6662 15.2329 17.529C16.5144 16.4248 17.7927 15.3206 19.0742 14.2164C19.2259 14.0844 19.3873 13.9427 19.4583 13.756C19.5229 13.5822 19.5035 13.389 19.4841 13.2023C19.3905 12.4039 19.255 11.6088 19.0806 10.8265C19.0129 10.5271 18.9386 10.2212 18.7643 9.96693C18.4738 9.54199 17.967 9.32308 17.4667 9.2265Z" fill="#ED9636"/>
<path d="M16.9792 11.8534C16.6693 12.0626 16.2787 12.1109 15.914 12.2011C15.2555 12.3588 14.6196 12.6775 14.1838 13.1926C13.748 13.7077 13.5446 14.4417 13.7545 15.0823C13.8578 15.3946 14.0482 15.665 14.2354 15.9354C14.3968 16.164 14.555 16.3926 14.7164 16.6211C14.768 16.6952 14.8294 16.7756 14.9198 16.7917C15.0166 16.8111 15.107 16.7467 15.1845 16.6887C15.8042 16.2219 16.424 15.7551 17.047 15.2883C17.7765 14.7411 18.5545 14.1165 18.7482 13.228C18.9644 12.2397 18.3834 11.2611 17.7507 10.4691C17.6022 10.9874 17.4247 11.5508 16.9792 11.8534Z" fill="#BB672E"/>
<path d="M17.3117 9.93793C17.2052 9.7995 16.9921 9.83491 16.8243 9.88642C16.4821 9.98944 16.1432 10.0892 15.801 10.1923C15.8107 10.5271 15.9398 10.8554 16.1593 11.1097C16.2497 11.2128 16.3659 11.3061 16.5015 11.3093C16.6532 11.3126 16.7823 11.1967 16.8792 11.0808C17.0696 10.8554 17.2181 10.5979 17.3149 10.3242C17.3601 10.1923 17.3924 10.0442 17.3117 9.93793Z" fill="#BB672E"/>
<path d="M41.031 19.9305C39.1329 20.2943 37.7546 22.1261 37.4834 24.0351C37.3833 24.7401 37.4156 25.4934 37.7707 26.1147C38.1548 26.7843 38.8521 27.2028 39.5203 27.5891C40.3014 28.0431 41.0826 28.497 41.867 28.9509C42.0478 29.0539 42.2415 29.1634 42.4481 29.1376C42.6514 29.1119 42.8161 28.9638 42.9645 28.8189C43.6973 28.0978 44.3752 27.3219 44.9853 26.4946C45.2112 26.1888 45.4372 25.854 45.4598 25.4741C45.4791 25.1489 45.35 24.8367 45.2177 24.5405C44.6818 23.3462 44.0427 22.1969 43.3164 21.1088C43 20.6355 42.6353 20.1494 42.0962 19.9595C41.7573 19.8468 41.3828 19.8629 41.031 19.9305Z" fill="#ED9636"/>
<path d="M43.8555 23.8676C43.7651 23.1143 43.5617 22.3739 43.2583 21.6753C43.1614 21.4532 43.0517 21.2343 42.8871 21.054C42.3415 20.4649 41.3893 20.5196 40.621 20.7643C39.5945 21.0926 38.5874 21.7655 38.2614 22.7924C38.1548 23.1304 38.129 23.4942 38.1871 23.8419C38.2904 23.7743 38.3969 23.7035 38.5002 23.6358C38.3711 24.0672 38.4163 24.5501 38.6229 24.9493C39.0942 24.3312 39.6139 23.7517 40.182 23.2206C40.5726 22.8536 41.0536 22.4866 41.5862 22.5381C41.8283 22.5606 42.0543 22.6701 42.2673 22.786C42.8354 23.0886 43.368 23.4524 43.8555 23.8676Z" fill="#BB672E"/>
<path d="M40.6339 23.8419C40.2175 23.9417 39.9302 24.3215 39.7527 24.7111C39.4977 25.268 39.4008 25.9151 39.601 26.4913C39.6784 26.7167 39.8043 26.9291 39.9883 27.0804C40.4338 27.4474 41.1601 27.3476 41.5571 26.9291C41.9542 26.5106 42.0349 25.8539 41.8444 25.3099C41.654 24.7658 41.2214 24.3312 40.7275 24.0318C40.5468 23.9256 40.776 23.6938 40.6339 23.8419Z" fill="#F9CAA0"/>
<path d="M42.6385 26.2661C42.8257 26.3498 43.0614 26.2146 43.1356 26.0214C43.2099 25.8283 43.1582 25.6093 43.0678 25.4258C42.9097 25.1136 42.6256 24.8657 42.2931 24.7466C42.1382 25.1715 42.1898 25.6641 42.4222 26.0504C42.4771 26.1373 42.5449 26.2242 42.6385 26.2661Z" fill="#F9CAA0"/>
<path d="M33.8326 9.83164C34.9624 11.8823 36.4601 13.9491 38.6907 14.6702C38.8585 14.7249 39.0393 14.7732 39.2136 14.7378C39.4105 14.6992 39.5719 14.564 39.7236 14.4352C40.8793 13.434 41.9574 12.3491 42.9516 11.187C43.0646 11.055 43.1744 10.923 43.2389 10.762C43.3003 10.6075 43.3132 10.4369 43.3132 10.2727C43.3228 8.95922 42.7192 7.70371 41.9251 6.65745C41.4894 6.08121 40.9761 5.54037 40.3273 5.22166C39.743 4.93193 39.078 4.83535 38.426 4.84501C36.4311 4.86755 34.3781 5.98785 33.6486 7.84214C33.5098 8.19948 33.4161 8.58579 33.4807 8.96244C33.5291 9.26827 33.6808 9.55479 33.8326 9.83164Z" fill="#BB672E"/>
<path d="M38.9102 13.8107C39.0845 13.9008 39.2717 13.9942 39.4654 13.9685C39.6333 13.9459 39.7753 13.8365 39.9044 13.7302C40.3983 13.3278 40.8728 12.9061 41.3247 12.4618C41.9574 11.8437 42.5901 11.0872 42.5578 10.2019C42.5384 9.62567 42.2318 9.10093 41.938 8.60517C41.4248 7.74241 40.9083 6.87964 40.3951 6.01688C40.337 5.9203 40.2756 5.82051 40.1756 5.77222C40.0626 5.71749 39.9302 5.74003 39.8108 5.76578C39.5203 5.82373 39.2298 5.88167 38.9425 5.93962C38.9005 6.31949 39.3169 6.58025 39.4589 6.93437C39.5784 7.23054 39.5009 7.56535 39.417 7.87439C39.2717 8.42811 39.1232 8.98504 38.978 9.53875C38.7972 9.22648 38.5874 8.93353 38.355 8.65989C38.2162 8.49893 37.9934 8.32831 37.8062 8.43455C37.6351 8.53112 37.6416 8.77257 37.661 8.96572C37.7739 9.99911 37.6932 11.0518 37.4221 12.0562C37.3382 12.3653 37.2478 12.729 37.4447 12.9801C37.5286 13.0896 37.6545 13.154 37.7772 13.2184C38.1548 13.4147 38.5325 13.6143 38.9102 13.8107Z" fill="#7F3A13"/>
<path d="M33.9714 8.53431C34.8817 7.13072 36.373 6.22932 37.8159 5.37622C37.2704 5.40519 36.7248 5.45992 36.2051 5.62732C35.6854 5.79472 35.1948 6.08124 34.8591 6.5094C34.7009 6.70899 34.5815 6.93756 34.462 7.16291C34.2328 7.59751 34.0004 8.04821 33.9714 8.53431Z" fill="#7F3A13"/>
<path d="M36.9411 6.60591C36.9056 6.63811 36.8733 6.67674 36.8604 6.72181C36.8443 6.78619 36.8798 6.84736 36.9121 6.9053C37.2704 7.52018 37.7513 8.06102 38.3195 8.48918C38.3905 8.54069 38.4809 8.59542 38.5583 8.55678C38.6229 8.52459 38.6487 8.45055 38.6649 8.37973C38.7617 8.01917 38.8585 7.65539 38.8779 7.28518C38.8973 6.91496 38.8359 6.52543 38.6358 6.21316C38.5454 6.07152 38.4228 5.94275 38.2614 5.89124C37.9773 5.8011 37.6803 5.97494 37.4479 6.15844C37.2704 6.30008 37.1025 6.44817 36.9411 6.60591Z" fill="#ED9636"/>
<path d="M38.2678 11.0839C37.9321 11.4413 37.8934 12.0401 38.1807 12.436C38.7391 11.9982 38.9973 11.2159 38.8101 10.5334L38.2678 11.0839Z" fill="#391701"/>
<path d="M42.5126 35.8497C42.5772 34.4783 42.5255 33.1037 42.3577 31.742C42.3125 31.3846 42.2447 30.9983 41.9735 30.7601C41.5862 30.4253 40.9987 30.554 40.508 30.7021C39.7462 30.9307 38.9877 31.1593 38.2258 31.3878C37.9256 31.478 37.6158 31.5713 37.3607 31.7548C37.0218 31.9963 36.7991 32.3665 36.5925 32.727C35.8823 33.9632 35.2012 35.2799 35.1399 36.7028C35.0818 38.1257 35.8242 39.6807 37.1864 40.1185C37.7933 40.3148 38.4518 40.2698 39.0813 40.1603C40.0045 39.9961 40.9438 39.6646 41.5636 38.966C42.2996 38.1354 42.4577 36.9539 42.5126 35.8497Z" fill="#ED9636"/>
<path d="M40.4564 38.4187C39.7236 38.6441 38.9425 38.7053 38.1839 38.6022C37.7933 38.5475 37.3898 38.4381 37.1122 38.158C36.8217 37.8586 36.7313 37.424 36.5344 37.057C36.4246 36.851 36.1922 36.6353 35.9856 36.7415C35.7823 36.8445 35.8081 37.1375 35.8726 37.3532C36.0502 37.9359 36.3052 38.4928 36.6312 39.0047C36.7442 39.1817 36.8766 39.3652 37.067 39.4521C37.1574 39.494 37.2607 39.5101 37.3575 39.5294C37.9612 39.6356 38.5777 39.7386 39.1846 39.6517C39.63 39.5873 40.0497 39.4232 40.4661 39.2493C40.6533 39.1721 40.847 39.0851 40.96 38.9177C41.0729 38.7503 41.06 38.4831 40.8793 38.3898C40.7501 38.3286 40.5952 38.3769 40.4564 38.4187Z" fill="#BB672E"/>
<path d="M39.8269 31.5552C39.3492 31.7452 38.8714 31.9383 38.3937 32.1283C38.0354 32.2699 37.6706 32.418 37.3833 32.6755C37.0928 32.9363 36.9056 33.2872 36.7345 33.6381C36.4731 34.1789 36.2342 34.7327 36.0276 35.296C35.9566 35.4892 35.9307 35.7757 36.1277 35.8369C36.1954 35.8594 36.3052 35.9173 36.2471 35.9592C37.8159 34.6651 39.3847 33.3741 40.9535 32.08C40.6113 32.022 40.2659 31.9834 39.9173 31.9641C40.0045 31.7967 40.1239 31.6486 40.2659 31.5231C40.1336 31.4426 39.9657 31.4973 39.8269 31.5552Z" fill="#BB672E"/>
<path d="M39.927 33.1552C39.8947 33.1262 39.8431 33.1359 39.8043 33.152C39.5913 33.2325 39.4073 33.3773 39.2298 33.5222C38.2259 34.3302 37.209 35.2702 36.9185 36.5225C36.9024 36.5869 36.9056 36.6771 36.9702 36.6932C37.0154 36.7028 37.0541 36.6674 37.0831 36.6352C37.8224 35.8529 38.5551 35.0642 39.2782 34.2691C39.5461 33.9729 39.8237 33.6638 39.9399 33.2807C39.9528 33.2389 39.9593 33.1874 39.927 33.1552Z" fill="#BB672E"/>
<path d="M39.262 38.1193C39.4815 38.4155 39.9367 38.3865 40.2821 38.2578C41.0213 37.9841 41.6249 37.3692 41.8864 36.6288C41.98 36.3648 42.0284 36.0493 41.8703 35.8143C41.767 35.6566 41.5862 35.5632 41.4054 35.5214C40.9729 35.4184 40.5209 35.56 40.111 35.7371C39.3912 36.0493 38.6778 36.5194 38.3872 37.2469C38.313 37.4336 38.2678 37.6397 38.3065 37.8392C38.3421 38.0388 39.0716 38.0549 39.262 38.1193Z" fill="#F9CAA0"/>
<path d="M40.6501 34.9998C40.6242 35.0481 40.7179 35.0642 40.7663 35.0385C41.1924 34.8131 41.4732 34.3367 41.4603 33.8538C41.0762 33.7443 40.6662 34.0212 40.4919 34.3817C40.3144 34.7391 40.8405 34.6489 40.6501 34.9998Z" fill="#F9CAA0"/>
<path d="M26.9279 32.8236C26.6051 33.3516 26.3501 33.9214 26.1758 34.5137C26.1177 34.7165 26.066 34.929 26.1177 35.1318C26.1661 35.3217 26.3017 35.4795 26.4308 35.6276C26.9117 36.1813 27.3927 36.735 27.8769 37.2887C27.9512 37.3756 28.0286 37.4626 28.1319 37.5141C28.2514 37.572 28.3902 37.5752 28.5161 37.6139C28.9357 37.7426 29.1261 38.2287 29.1939 38.6601C29.2617 39.0947 29.2779 39.5679 29.5555 39.906C30.0655 40.5273 31.0533 40.3019 31.8054 40.0219C32.2605 39.8512 32.7157 39.6838 33.1708 39.5132C33.4678 39.4038 33.7841 39.2782 33.9552 39.0142C34.0682 38.8436 34.1037 38.6376 34.1392 38.438C34.3071 37.4819 34.4749 36.5064 34.3103 35.5503C34.1457 34.5942 33.5743 33.6509 32.6673 33.3065C32.4252 33.2131 32.154 33.1616 31.9603 32.991C31.6892 32.7528 31.6375 32.3536 31.4568 32.0413C31.1372 31.4876 30.4206 31.2623 29.7847 31.3331C29.1487 31.4103 27.4896 32.521 26.9279 32.8236Z" fill="#BB672E"/>
<path d="M33.3968 38.9273C33.4839 38.8114 33.5227 38.6698 33.5582 38.5313C33.7712 37.704 33.8971 36.8541 33.9488 36.0042C33.9681 35.7113 33.9778 35.4086 33.8842 35.1286C33.7906 34.8485 33.5743 34.591 33.287 34.5298C33.0514 34.9258 32.8997 35.3732 32.8448 35.8304C32.8125 36.1072 32.8093 36.397 32.6769 36.6384C32.5414 36.8798 32.2089 37.044 31.9797 36.8863C32.0313 36.5611 32.0572 36.2328 32.0539 35.9012C31.5536 36.4002 31.0888 36.9346 30.6691 37.5012C30.3947 37.8714 30.1268 38.3092 30.2172 38.7599C30.3173 39.2621 30.8499 39.584 31.3631 39.6162C31.8764 39.6484 32.3735 39.4585 32.8512 39.2718C33.0514 39.1913 33.2677 39.1044 33.3968 38.9273Z" fill="#7F3A13"/>
<path d="M27.2023 35.6856C27.1442 35.8337 27.2055 36.0043 27.2926 36.1363C27.4766 36.4163 27.7833 36.6063 28.1126 36.6868C28.261 36.7222 28.4192 36.7415 28.558 36.8059C28.7033 36.8767 28.8163 36.9958 28.9486 37.0827C29.1455 37.2115 29.3844 37.2727 29.6168 37.2534C29.5361 36.4131 28.8033 35.7532 27.9963 35.4956C27.8511 35.4506 27.7026 35.4152 27.5509 35.4345C27.4024 35.457 27.2571 35.5439 27.2023 35.6856Z" fill="#7F3A13"/>
<path d="M31.2921 32.4921C31.2211 32.0993 30.8241 31.8321 30.427 31.787C30.03 31.742 29.6362 31.8675 29.2585 32.0027C28.6968 32.2056 28.1384 32.4309 27.6477 32.7754C27.1603 33.1166 26.7407 33.5866 26.5567 34.1532C26.5018 34.3206 26.4856 34.546 26.6406 34.6361C27.1377 34.2691 27.5025 33.754 27.9286 33.3065C28.3547 32.8591 28.897 32.4567 29.5167 32.4373C29.4845 32.5468 29.3876 32.6208 29.3198 32.711C29.2488 32.8011 29.2068 32.9395 29.2843 33.0232C29.3779 33.1263 29.5458 33.0587 29.6652 32.9911C30.1623 32.7013 30.7175 32.4728 31.2921 32.4921Z" fill="#7F3A13"/>
<path d="M29.7104 33.5254C29.4231 33.548 29.1875 33.7894 29.0971 34.0663C28.9744 34.4461 29.1036 34.8839 29.3779 35.1769C29.6523 35.4699 30.0558 35.6244 30.4561 35.6437C30.5239 35.4602 30.4722 35.2542 30.4173 35.0642C30.2818 34.6007 30.1268 34.1403 29.9461 33.6928C29.9267 33.6413 29.9009 33.5866 29.8557 33.5544C29.8137 33.5254 29.7588 33.5222 29.7104 33.5254Z" fill="#ED9636"/>
<path d="M33.1547 37.6976C33.2418 37.5463 33.2999 37.3209 33.1579 37.2211C33.0578 37.1503 32.919 37.1921 32.8093 37.2469C32.296 37.4948 31.9022 37.9744 31.757 38.5249C31.7699 38.6537 31.9151 38.7406 32.0442 38.7342C32.1766 38.7277 32.2928 38.6505 32.3961 38.57C32.7028 38.335 32.9642 38.0356 33.1547 37.6976Z" fill="#391701"/>
<path d="M48.9686 29.1247C49.8498 29.3951 50.8021 28.9992 51.5671 28.4841C52.3225 27.9754 52.9939 27.338 53.5427 26.6105C53.9397 26.0825 54.2786 25.4934 54.4078 24.8463C54.6531 23.6294 54.1043 22.345 53.207 21.4822C52.3128 20.6194 51.1152 20.1269 49.9047 19.8404C49.314 19.7019 48.6071 19.6343 48.1713 20.0593C47.9163 20.3104 47.8162 20.6742 47.7291 21.0218C47.2578 22.889 46.78 24.8334 47.1706 26.7199C47.3837 27.7501 47.9615 28.8189 48.9686 29.1247Z" fill="#B25820"/>
<path d="M49.5044 27.1675C49.3301 27.4797 49.1235 27.7759 48.8911 28.0495C49.3656 28.2266 49.8402 28.4037 50.3147 28.5839C50.3857 28.6097 50.4599 28.6387 50.5342 28.629C50.631 28.6194 50.7085 28.5517 50.7795 28.4906C51.9222 27.4926 52.9132 26.324 53.7041 25.0331C53.5265 24.8979 53.2651 24.943 53.0811 25.0717C52.9003 25.2005 52.7776 25.3937 52.6485 25.5739C52.2999 26.0536 51.8447 26.4592 51.3315 26.7554C51.9997 25.6222 52.8454 24.5921 53.8299 23.7164C53.5814 23.1691 53.3425 22.6187 53.1133 22.0649C52.7421 22.1841 52.4548 22.4738 52.1934 22.7603C51.3218 23.7325 50.5923 24.8335 50.0467 26.015C49.8692 26.4013 49.7078 26.7973 49.5044 27.1675Z" fill="#7F3A13"/>
<path d="M47.8582 21.5595C47.6548 22.3579 47.5418 23.1788 47.5225 24.0029C47.516 24.2669 47.5289 24.5599 47.7097 24.753C47.7323 24.7788 47.7613 24.8013 47.7936 24.8045C47.8646 24.8142 47.9131 24.7337 47.9421 24.6693C48.3359 23.7518 48.7297 22.8343 49.1268 21.9136C49.2688 21.5788 49.4141 21.244 49.498 20.8899C49.5109 20.8384 49.5174 20.7805 49.4851 20.7418C49.4496 20.7 49.385 20.7032 49.3301 20.7096C49.0396 20.7418 48.7459 20.7708 48.4554 20.803C48.3424 20.8159 48.2262 20.8287 48.139 20.8996C48.0648 20.9575 48.0228 21.0509 47.9905 21.1378C47.9356 21.2762 47.8969 21.4179 47.8582 21.5595Z" fill="#7F3A13"/>
<path d="M49.9886 22.2902C50.2243 22.0906 50.4406 21.8202 50.4406 21.5111C50.4406 21.2021 50.1178 20.893 49.8305 21.0089C49.6368 21.3791 49.4334 21.7944 49.5529 22.1936C49.5755 22.2773 49.6239 22.3642 49.7046 22.39C49.8046 22.4254 49.9079 22.3578 49.9886 22.2902Z" fill="#ED9636"/>
<path d="M49.2236 27.1577C49.7562 26.9645 50.0952 26.4462 50.3696 25.9505C50.9603 24.8913 51.4606 23.7839 51.8609 22.6411C51.9093 22.5026 51.9319 22.3063 51.7963 22.2548C50.2437 23.3429 49.1881 25.107 48.9654 26.9839C48.9589 27.0321 48.9557 27.0869 48.9815 27.1255C49.0299 27.1995 49.1397 27.1867 49.2236 27.1577Z" fill="#391701"/>
<path d="M30.8951 6.078C30.1591 5.29572 28.9906 5.02852 27.9253 5.17017C26.8601 5.31182 28.3934 3.95651 27.467 4.50378L27.3378 4.62933C26.4566 4.82249 25.8852 5.64662 25.4172 6.41602C24.8232 7.3979 24.2357 8.5343 24.5456 9.6385C24.7006 10.189 25.0621 10.6558 25.4172 11.1065C26.5308 12.5165 27.6639 13.9491 29.1423 14.976C29.7621 15.4074 30.5013 15.7712 31.2437 15.636C32.0572 15.4847 32.664 14.741 32.8771 13.9427C33.0901 13.1443 32.9804 12.2976 32.8286 11.4864C32.5898 10.2115 32.2444 8.95924 31.7989 7.74236C31.5826 7.14358 31.3309 6.54157 30.8951 6.078Z" fill="#ED9636"/>
<path d="M26.7794 5.69812C25.9853 6.55766 25.3849 7.59426 25.0395 8.71135C24.9556 8.97855 24.9201 9.3391 25.1622 9.48075C25.4075 9.6224 25.7013 9.40993 25.8982 9.20711C26.3275 8.75964 26.7245 8.28319 27.0861 7.78098C27.1894 8.64374 27.8027 9.35842 28.4741 9.91213C29.1455 10.4658 29.9041 10.9262 30.4787 11.5765C30.4206 10.292 30.3237 9.00752 30.1882 7.72625C30.2818 8.35401 30.6046 8.94635 31.0791 9.36808C30.9467 8.5021 30.6272 7.66509 30.1462 6.93432C29.9816 6.68321 29.7911 6.43855 29.5426 6.27115C29.2359 6.0619 28.8582 5.98141 28.4935 5.91703C27.9286 5.81723 27.354 5.74319 26.7794 5.69812Z" fill="#BB672E"/>
<path d="M26.0434 9.99582C26.0176 11.0614 26.8181 12.0433 27.8253 12.3974C28.1577 12.5133 28.5838 12.5455 28.8033 12.2718C29.0003 12.024 28.9228 11.6602 28.7904 11.3737C28.416 10.5592 27.7123 9.94753 27.0344 9.36162C26.9505 9.2908 26.8633 9.21676 26.76 9.18456C26.5599 9.1234 26.3372 9.22963 26.2113 9.40025C26.0854 9.57088 26.0466 9.78978 26.0434 9.99582Z" fill="#F9CAA0"/>
<path d="M29.5942 12.8802C29.4941 13.2537 29.5555 13.6657 29.7588 13.9941C30.0138 13.7784 30.0526 13.3857 29.9428 13.0734C29.8363 12.7579 29.8169 13.1281 29.5942 12.8802Z" fill="#F9CAA0"/>
<path d="M26.4372 21.8234C26.0951 22.4028 25.782 22.9952 25.4914 23.6036C25.3107 23.9867 25.1364 24.4245 25.2848 24.8205C25.3849 25.0909 25.6141 25.2841 25.7916 25.5094C26.1209 25.9279 26.2694 26.4591 26.4211 26.9677C26.731 28.0301 27.0828 29.1021 27.722 30.0067C28.3611 30.9113 29.3392 31.6389 30.4432 31.7258C32.0023 31.8514 33.358 30.7439 34.5266 29.7073C34.7429 29.5142 34.9688 29.3049 35.0301 29.0216C35.0786 28.8059 35.0205 28.5838 34.9624 28.3713C34.7041 27.412 34.4459 26.4527 34.1876 25.4933C34.0876 25.1263 33.9714 24.7336 33.6679 24.5082C33.0675 24.0608 32.1572 24.5372 31.4761 24.2249C30.682 23.8612 30.6788 22.7312 30.1527 22.0391C29.5652 21.2697 28.4547 21.1731 27.4863 21.1827C27.2959 21.186 27.099 21.1892 26.9279 21.2729C26.7019 21.3856 26.5631 21.6077 26.4372 21.8234Z" fill="#ED9636"/>
<path d="M28.7485 22.612C28.6871 22.5605 28.6258 22.5058 28.5645 22.4543C29.4941 23.1883 29.8169 24.4374 30.0042 25.6027C30.1946 26.7681 30.3302 28.0075 31.0339 28.9572C31.1307 29.0892 31.2954 29.2276 31.4438 29.1504C31.5375 29.1021 31.5697 28.9894 31.5923 28.8864C31.7602 28.0977 31.757 27.2703 31.5826 26.4816C32.0862 26.2884 32.6221 26.7198 32.8738 27.1931C33.1289 27.6663 33.2451 28.2264 33.6098 28.6224C33.697 28.719 33.8326 28.8059 33.9488 28.748C34.0327 28.7029 34.065 28.5999 34.0843 28.5065C34.2296 27.7564 34.1005 26.9806 33.9714 26.2273C33.8939 25.7766 33.7874 25.2776 33.4097 25.0201C33.0288 24.7593 32.5188 24.8494 32.0604 24.7915C31.4374 24.7142 30.8563 24.3344 30.5432 23.7903C30.2689 23.3203 30.1785 22.7344 29.7847 22.3609C29.4974 22.0873 29.0939 21.9714 28.7097 21.8684C28.274 21.7493 27.8382 21.6334 27.3992 21.5143C27.4573 21.8555 27.5154 22.1935 27.5735 22.5348L28.7485 22.612Z" fill="#BB672E"/>
<path d="M30.2592 31.42C30.9822 31.581 31.786 31.3041 32.2476 30.7279C32.338 30.6152 32.4155 30.4897 32.4381 30.3512C32.4607 30.2096 32.4122 30.0519 32.2928 29.9714C32.5059 29.775 32.7189 29.5754 32.9319 29.379C32.4671 29.6237 31.9765 29.8233 31.4697 29.9714C30.7531 30.1806 29.9913 30.2933 29.365 30.6989C29.4715 31.082 29.8654 31.3299 30.2592 31.42Z" fill="#BB672E"/>
<path d="M37.1638 28.1976C37.1348 28.1944 37.1057 28.2169 37.0831 28.2362C36.9185 28.3746 36.7539 28.5098 36.5925 28.6483C36.6861 28.8157 36.7765 28.9831 36.8701 29.1537C37.0121 28.864 37.2639 28.629 37.5641 28.5066C37.4544 28.4165 37.3414 28.3231 37.2316 28.233C37.2123 28.2169 37.1897 28.2008 37.1638 28.1976Z" fill="#D3D37A"/>
<path d="M15.9947 19.8114C16.1593 19.821 16.3143 19.9079 16.4111 20.0399C16.466 20.0689 16.5273 20.0206 16.566 19.9723C16.8437 19.66 17.1213 19.351 17.4021 19.0387C17.4505 18.984 17.5022 18.9261 17.5215 18.8552C17.557 18.72 17.4699 18.5848 17.373 18.485C17.3246 18.4367 17.2697 18.3884 17.1987 18.3788C17.0922 18.3627 16.9986 18.4432 16.9244 18.5204C16.6693 18.7812 16.4531 19.0741 16.2336 19.3639C16.1335 19.5023 16.027 19.644 15.9947 19.8114Z" fill="#391701"/>
<path d="M17.1987 18.4914C17.0599 18.4882 16.9502 18.6009 16.863 18.7071C16.6177 18.9968 16.3724 19.2898 16.127 19.5795C16.1077 19.6053 16.0851 19.631 16.0851 19.6632C16.0851 19.734 16.1722 19.763 16.2432 19.7694C16.4208 19.4121 16.6823 19.0966 17.0051 18.8616C17.0599 18.823 17.118 18.7811 17.1471 18.72C17.1794 18.6491 17.1665 18.5622 17.1987 18.4914Z" fill="#7F3A13"/>
<path d="M18.3963 15.8935C18.4899 15.6907 18.7643 15.6585 18.987 15.6553C18.8611 15.3655 18.7772 15.0597 18.7385 14.7474C18.5448 14.8408 18.3479 14.9342 18.1542 15.0275C18.2478 15.314 18.3285 15.6038 18.3963 15.8935Z" fill="#D3D37A"/>
<path d="M23.6095 31.0852C23.2932 31.1013 22.9801 31.0981 22.6637 31.082C22.6702 31.2655 22.6766 31.449 22.6799 31.6325C23.0027 31.5327 23.348 31.5005 23.6838 31.5424C23.6321 31.3975 23.6063 31.2398 23.6095 31.0852Z" fill="#D3D37A"/>
<path d="M35.1012 18.5945C35.0979 18.6267 35.1205 18.6556 35.1399 18.6782C35.2658 18.8198 35.3949 18.9615 35.5272 19.0967C35.6402 18.8552 35.8242 18.6492 36.047 18.5043C35.9211 18.3659 35.7952 18.2275 35.6693 18.0858C35.495 18.2307 35.3207 18.3755 35.1496 18.5236C35.1302 18.543 35.1044 18.5655 35.1012 18.5945Z" fill="#D3D37A"/>
<path d="M27.9189 20.085C27.9608 19.9176 28.0577 19.763 28.1933 19.6536C28.048 19.5087 27.9286 19.3381 27.8414 19.1514C27.6736 19.2351 27.5025 19.3155 27.3346 19.3992C27.5509 19.6085 27.7446 19.8371 27.9189 20.085Z" fill="#D3D37A"/>
<path d="M9.71302 31.5874C9.5613 31.6389 9.3999 31.6646 9.2385 31.6614C9.07065 31.6582 8.85437 31.6453 8.78013 31.7934C8.78013 31.6646 8.7769 31.5358 8.7769 31.4071C9.10616 31.3491 9.43218 31.2944 9.76144 31.2365C9.74207 31.3556 9.72916 31.4715 9.71302 31.5874Z" fill="#D3D37A"/>
<path d="M7.20487 25.091C7.51476 25.2036 7.8311 25.3034 8.15067 25.3871C8.18295 25.239 8.24106 25.0974 8.31853 24.9686C8.10871 24.8302 7.89889 24.6918 7.68907 24.5533C7.5309 24.7336 7.3695 24.9107 7.20487 25.091Z" fill="#D3D37A"/>
<path d="M9.62586 14.7024C9.82923 15.0501 10.0358 15.3913 10.2521 15.7293C10.3392 15.6006 10.4845 15.5169 10.6395 15.5104C10.4425 15.137 10.2973 14.7378 10.2134 14.3225C10.0068 14.4287 9.80986 14.5575 9.62586 14.7024Z" fill="#D3D37A"/>
<path d="M25.1041 13.9973C25.0201 13.9394 24.9136 13.9329 24.8136 13.9265C24.6296 13.9169 24.4488 13.9072 24.2648 13.9008C24.2616 14.0553 24.2583 14.213 24.2551 14.3675C24.6263 14.3289 25.0072 14.3675 25.3623 14.477C25.259 14.3257 25.2558 14.1036 25.1041 13.9973Z" fill="#D3D37A"/>
<path d="M29.7233 17.7832C29.7266 17.8766 29.7492 17.9732 29.7943 18.0569C30.0623 18.073 30.3334 18.0569 30.5949 18.0054C30.6078 17.8766 30.6207 17.7446 30.6368 17.6158C30.327 17.6416 30.0203 17.6963 29.7233 17.7832Z" fill="#D3D37A"/>
<path d="M46.5541 28.6321C46.3991 28.6353 46.2442 28.6804 46.1151 28.7641C46.2248 29.0892 46.383 29.395 46.5831 29.6719C46.6122 29.5721 46.6832 29.4884 46.7768 29.4433C46.6186 29.2051 46.5379 28.9154 46.5541 28.6321Z" fill="#D3D37A"/>
<path d="M45.4501 34.1017C45.463 34.5073 45.0627 34.8228 45.0208 35.2252C45.2951 35.2671 45.5695 35.3121 45.8439 35.354C45.8084 35.1125 45.8504 34.8582 45.9698 34.6425C45.7664 34.6329 45.6373 34.1854 45.4501 34.1017Z" fill="#D3D37A"/>
<path d="M30.8241 38.9047C30.8467 38.9498 30.8854 38.9884 30.9241 39.0239C31.0404 39.1333 31.1598 39.2428 31.276 39.3522C31.3373 39.1848 31.4019 39.0206 31.4632 38.8532C31.489 38.7889 31.5116 38.718 31.4923 38.6504C31.4503 38.5152 31.2663 38.4959 31.1533 38.4058C31.0565 38.4573 30.9532 38.512 30.8822 38.5957C30.8112 38.6794 30.7757 38.8049 30.8241 38.9047Z" fill="#D3D37A"/>
<path d="M44.6592 29.5625C44.5882 29.437 44.5463 29.2921 44.543 29.1472C44.1428 29.2019 43.7522 29.3082 43.381 29.4659C43.3519 29.4788 43.3229 29.4917 43.3067 29.5174C43.2841 29.5528 43.2938 29.5979 43.3035 29.6398C43.3325 29.7589 43.3648 29.878 43.3939 29.9939C43.8006 29.9359 44.2106 29.8812 44.6173 29.8233C44.6366 29.82 44.656 29.8168 44.6722 29.8104C44.7141 29.7878 44.727 29.7331 44.7173 29.6881C44.7077 29.6398 44.6818 29.6011 44.6592 29.5625Z" fill="#391701"/>
<path d="M43.5359 29.7363C43.5036 29.7492 43.4649 29.7717 43.4681 29.8072C43.4746 29.8458 43.5262 29.8522 43.565 29.8522C43.9168 29.8297 44.2687 29.8039 44.6173 29.7814C44.6366 29.7363 44.656 29.6816 44.6334 29.6398C44.6044 29.5818 44.5269 29.5721 44.4656 29.5721C44.1524 29.5689 43.8361 29.6269 43.5359 29.7363Z" fill="#7F3A13"/>
<path d="M24.0679 36.3004C23.9355 36.0654 23.8613 35.795 23.8548 35.5245C23.1092 35.6243 22.3764 35.8239 21.6824 36.1169C21.6275 36.1394 21.5727 36.1652 21.5436 36.2135C21.5016 36.2778 21.521 36.3648 21.5404 36.4388C21.5953 36.6609 21.6534 36.8831 21.7082 37.102C22.47 36.9957 23.2318 36.8895 23.9936 36.7833C24.0292 36.78 24.0647 36.7736 24.0937 36.7575C24.1712 36.7157 24.197 36.6159 24.1776 36.5322C24.1615 36.4517 24.1099 36.3776 24.0679 36.3004Z" fill="#391701"/>
<path d="M21.9697 36.632C21.9084 36.6545 21.8341 36.6964 21.8438 36.764C21.8535 36.838 21.9536 36.8509 22.0278 36.8477C22.6831 36.8026 23.3416 36.7575 23.9969 36.7125C24.0324 36.6288 24.0711 36.529 24.0292 36.4453C23.9775 36.3358 23.8322 36.3197 23.7128 36.3197C23.1189 36.3197 22.5281 36.4259 21.9697 36.632Z" fill="#7F3A13"/>
<path d="M50.5245 32.2698C50.56 32.0992 50.4051 31.9608 50.305 31.8159C49.6207 31.8417 48.9396 31.9769 48.3004 32.2183C48.2746 32.228 48.2488 32.2376 48.2359 32.2602C48.2229 32.2827 48.2262 32.3085 48.2294 32.331C48.252 32.5242 48.3133 32.7109 48.4069 32.8783C48.9751 32.7656 49.5432 32.6497 50.1145 32.537C50.2856 32.5048 50.489 32.4372 50.5245 32.2698Z" fill="#391701"/>
<path d="M48.578 32.5821C49.1365 32.5789 49.6917 32.521 50.2372 32.4083C50.3276 32.389 50.4341 32.3504 50.447 32.2602C50.4438 32.2216 50.3921 32.2152 50.3534 32.2184C49.7917 32.2538 49.2333 32.3471 48.6878 32.4952C48.6426 32.5081 48.5812 32.5306 48.578 32.5821Z" fill="#7F3A13"/>
<path d="M18.7062 8.01277C18.8708 8.02243 19.0258 8.10935 19.1226 8.24134C19.1775 8.27031 19.2388 8.22202 19.2776 8.17373C19.5552 7.86146 19.8328 7.55242 20.1136 7.24015C20.162 7.18542 20.2137 7.12747 20.233 7.05665C20.2685 6.92144 20.1814 6.78623 20.0846 6.68643C20.0361 6.63815 19.9813 6.58986 19.9102 6.5802C19.8037 6.5641 19.7101 6.64458 19.6359 6.72185C19.3808 6.98261 19.1646 7.27556 18.9451 7.56529C18.845 7.70372 18.7417 7.84537 18.7062 8.01277Z" fill="#391701"/>
<path d="M19.9135 6.69282C19.7747 6.6896 19.6649 6.80227 19.5778 6.90851C19.3324 7.19824 19.0871 7.49119 18.8418 7.78093C18.8224 7.80668 18.7998 7.83243 18.7998 7.86463C18.7998 7.93545 18.887 7.96442 18.958 7.97086C19.1355 7.61352 19.397 7.29804 19.7198 7.06303C19.7747 7.0244 19.8328 6.98255 19.8618 6.92138C19.8941 6.85056 19.8812 6.76364 19.9135 6.69282Z" fill="#7F3A13"/>
<path d="M55.2955 20.2105C55.2793 20.2041 55.2632 20.1944 55.247 20.1977C55.2245 20.2009 55.2083 20.217 55.1922 20.2363C54.9017 20.5711 54.6402 20.9284 54.4045 21.3051C54.5337 21.363 54.6628 21.421 54.7919 21.4789C54.9404 21.1956 55.1341 20.9381 55.3665 20.716C55.4407 20.6451 55.5279 20.5614 55.5214 20.4584C55.5182 20.3393 55.402 20.262 55.2955 20.2105Z" fill="#391701"/>
<path d="M55.3342 20.3651C55.3503 20.4392 55.3277 20.5164 55.2793 20.5744C55.2341 20.6259 55.1696 20.6581 55.1147 20.6999C54.9791 20.7933 54.8855 20.9349 54.7951 21.0733C54.7532 21.1377 54.7112 21.2021 54.6692 21.2665C54.6563 21.289 54.6402 21.318 54.6563 21.3373C54.737 21.3631 54.8145 21.289 54.8661 21.2182C54.9372 21.1249 55.0082 21.0315 55.0792 20.9381C55.1179 20.8866 55.1567 20.8319 55.2051 20.7901C55.2503 20.7482 55.3019 20.7128 55.3439 20.6677C55.3891 20.6227 55.4246 20.5679 55.4278 20.5068C55.4343 20.4456 55.3955 20.378 55.3342 20.3651Z" fill="#7F3A13"/>
<path d="M42.1866 15.4364C42.164 15.4783 42.1834 15.533 42.1995 15.5781C42.4319 16.1704 42.6773 16.7531 42.9387 17.3326C43.0614 17.2199 43.1937 17.1169 43.339 17.03C43.2196 16.3893 43.0162 15.7648 42.7354 15.1757C42.5675 15.2207 42.4093 15.2883 42.2576 15.372C42.2286 15.3881 42.1995 15.4074 42.1866 15.4364Z" fill="#391701"/>
<path d="M42.603 15.9289C42.5062 15.8452 42.4868 15.7004 42.5062 15.5748C42.5159 15.504 42.5191 15.4106 42.4545 15.3849C42.3609 15.3913 42.3093 15.504 42.3222 15.5941C42.3351 15.6875 42.3932 15.7648 42.4384 15.8452C42.5288 16.0126 42.5578 16.2058 42.6417 16.3764C42.6902 16.4762 42.7547 16.5696 42.8096 16.6662C42.9097 16.8432 42.9775 17.0364 43.0388 17.2295C43.1227 17.1909 43.1518 17.0814 43.1292 16.9913C43.1066 16.9012 43.0452 16.8271 42.9904 16.7531C42.8742 16.5953 42.7773 16.4118 42.7773 16.2155C42.7773 16.1639 42.7838 16.1092 42.7612 16.0609C42.7289 15.9998 42.6547 15.974 42.603 15.9289Z" fill="#7F3A13"/>
<path d="M26.4211 37.8038C26.3017 37.8972 26.4114 37.8907 26.3501 38.0291C26.1758 38.4122 26.0176 38.8082 25.9724 39.2267C25.9692 39.2589 25.9659 39.2943 25.9918 39.3169C26.0079 39.3329 26.0305 39.3362 26.0531 39.3394C26.1758 39.3555 26.3017 39.3619 26.4243 39.3523C26.6987 38.9402 26.8375 38.4412 26.8181 37.9487C26.8181 37.9133 26.8149 37.8746 26.7955 37.8424C26.7504 37.7716 26.6503 37.7684 26.5664 37.7748C26.4598 37.7877 26.5212 37.7941 26.4211 37.8038Z" fill="#391701"/>
<path d="M26.221 39.0754C26.2177 39.0496 26.2145 39.0271 26.2145 39.0013C26.221 38.9273 26.2855 38.8758 26.321 38.8146C26.4308 38.6311 26.3469 38.3575 26.505 38.2126C26.5244 38.1933 26.5502 38.1772 26.5664 38.1547C26.6277 38.071 26.5438 37.9422 26.5922 37.8488C26.6051 37.8231 26.6374 37.8005 26.6632 37.8134C26.6793 37.8199 26.689 37.8392 26.6923 37.8585C26.7019 37.9003 26.6955 37.9454 26.6858 37.9873C26.6567 38.145 26.6277 38.306 26.5986 38.4637C26.5857 38.541 26.5696 38.6215 26.5438 38.6955C26.5147 38.7792 26.476 38.8597 26.4372 38.9402C26.3759 39.0625 26.3146 39.1848 26.2532 39.3039C26.2468 39.2299 26.2339 39.1526 26.221 39.0754Z" fill="#7F3A13"/>
</svg>
