<svg width="28" height="28" viewBox="0 0 28 28" fill="none" xmlns="http://www.w3.org/2000/svg">
<path d="M1 23.75C1 22.0261 1.68482 20.3728 2.90381 19.1538C4.12279 17.9348 5.77609 17.25 7.5 17.25H20.5C22.2239 17.25 23.8772 17.9348 25.0962 19.1538C26.3152 20.3728 27 22.0261 27 23.75C27 24.612 26.6576 25.4386 26.0481 26.0481C25.4386 26.6576 24.612 27 23.75 27H4.25C3.38805 27 2.5614 26.6576 1.9519 26.0481C1.34241 25.4386 1 24.612 1 23.75Z" stroke="currentColor" stroke-width="1.5" stroke-linejoin="round"/>
<path d="M14 10.75C16.6924 10.75 18.875 8.56739 18.875 5.875C18.875 3.18261 16.6924 1 14 1C11.3076 1 9.125 3.18261 9.125 5.875C9.125 8.56739 11.3076 10.75 14 10.75Z" stroke="currentColor" stroke-width="1.5"/>
</svg>
